<?xml version="1.0" standalone="no"?>
<!DOCTYPE svg PUBLIC "-//W3C//DTD SVG 1.1//EN" "http://www.w3.org/Graphics/SVG/1.1/DTD/svg11.dtd" >
<svg>
<metadata>
Created by FontForge 20090622 at Tue Apr 21 09:20:00 2020
 By deploy user
[c] Copyright 1993, 1998-2003, The Font Bureau, Inc. Based on a design by S.H. deRoos. All Rights Reserved.
</metadata>
<defs>
<font id="Nobel-Book" horiz-adv-x="0" >
  <font-face 
    font-family="Nobel-Book"
    font-weight="390"
    font-stretch="normal"
    units-per-em="2048"
    panose-1="2 0 5 3 3 0 0 2 0 4"
    ascent="1638"
    descent="-410"
    x-height="836"
    cap-height="1495"
    bbox="-73 -424 2273 1900"
    underline-thickness="20"
    underline-position="-113"
    unicode-range="U+0020-U+FB04"
  />
<missing-glyph horiz-adv-x="369" 
 />
    <glyph glyph-name="uniFB00" unicode="ff" horiz-adv-x="946" 
d="M25 713v123h135v475q0 48 15.5 83.5t42 58t60.5 33.5t72 11h18h24q12 0 23.5 -0.5t18.5 -1.5v-121q-14 1 -26 2q-11 1 -20.5 1t-14.5 -1q-18 -1 -32.5 -6.5t-25 -17.5t-16.5 -32t-6 -50v-434h143v-123h-143v-713h-133v713h-135zM498 713v123h135v475q0 48 15.5 83.5
t42 58t60.5 33.5t72 11h17h24q13 0 24.5 -0.5t18.5 -1.5v-121q-14 1 -26 2q-11 1 -20.5 1t-14.5 -1q-18 -1 -32.5 -6.5t-25 -17.5t-16.5 -32t-6 -50v-434h143v-123h-143v-713h-133v713h-135z" />
    <glyph glyph-name="uniFB01" unicode="fi" horiz-adv-x="862" 
d="M25 713v123h135v475q0 48 15.5 83.5t42 58t60.5 33.5t72 11h18h24q12 0 23.5 -0.5t18.5 -1.5v-121q-14 1 -26 2q-11 1 -20.5 1t-14.5 -1q-18 -1 -32.5 -6.5t-25 -17.5t-16.5 -32t-6 -50v-434h143v-123h-143v-713h-133v713h-135zM600 0v836h133v-836h-133zM600 1049v196
h133v-196h-133z" />
    <glyph glyph-name="uniFB02" unicode="fl" horiz-adv-x="862" 
d="M25 713v123h135v475q0 48 15.5 83.5t42 58t60.5 33.5t72 11h18h24q12 0 23.5 -0.5t18.5 -1.5v-121q-14 1 -26 2q-11 1 -20.5 1t-14.5 -1q-18 -1 -32.5 -6.5t-25 -17.5t-16.5 -32t-6 -50v-434h143v-123h-143v-713h-133v713h-135zM600 0v1495h133v-1495h-133z" />
    <glyph glyph-name="uniFB03" unicode="ffi" horiz-adv-x="1337" 
d="M25 713v123h135v475q0 48 15.5 83.5t42 58t60.5 33.5t72 11h18h24q12 0 23.5 -0.5t18.5 -1.5v-121q-14 1 -26 2q-11 1 -20.5 1t-14.5 -1q-18 -1 -32.5 -6.5t-25 -17.5t-16.5 -32t-6 -50v-434h143v-123h-143v-713h-133v713h-135zM498 713v123h135v475q0 48 15.5 83.5
t42 58t60.5 33.5t72 11h17h24q13 0 24.5 -0.5t18.5 -1.5v-121q-14 1 -26 2q-11 1 -20.5 1t-14.5 -1q-18 -1 -32.5 -6.5t-25 -17.5t-16.5 -32t-6 -50v-434h143v-123h-143v-713h-133v713h-135zM1075 0v836h133v-836h-133zM1075 1049v196h133v-196h-133z" />
    <glyph glyph-name="uniFB04" unicode="ffl" horiz-adv-x="1337" 
d="M25 713v123h135v475q0 48 15.5 83.5t42 58t60.5 33.5t72 11h18h24q12 0 23.5 -0.5t18.5 -1.5v-121q-14 1 -26 2q-11 1 -20.5 1t-14.5 -1q-18 -1 -32.5 -6.5t-25 -17.5t-16.5 -32t-6 -50v-434h143v-123h-143v-713h-133v713h-135zM498 713v123h135v475q0 48 15.5 83.5
t42 58t60.5 33.5t72 11h17h24q13 0 24.5 -0.5t18.5 -1.5v-121q-14 1 -26 2q-11 1 -20.5 1t-14.5 -1q-18 -1 -32.5 -6.5t-25 -17.5t-16.5 -32t-6 -50v-434h143v-123h-143v-713h-133v713h-135zM1075 0v1495h133v-1495h-133z" />
    <glyph glyph-name=".notdef" horiz-adv-x="369" 
 />
    <glyph glyph-name="glyph1" 
 />
    <glyph glyph-name="glyph2" horiz-adv-x="369" 
 />
    <glyph glyph-name="space" unicode=" " horiz-adv-x="369" 
 />
    <glyph glyph-name="exclam" unicode="!" horiz-adv-x="410" 
d="M129 0v197h147v-197h-147zM129 739v756h147v-756l-30 -450h-88z" />
    <glyph glyph-name="quotedbl" unicode="&#x22;" horiz-adv-x="629" 
d="M115 1298v197h137v-197l-31 -202h-78zM377 1298v197h139v-197l-31 -202h-77z" />
    <glyph glyph-name="numbersign" unicode="#" horiz-adv-x="1227" 
d="M76 446v111h233l33 387h-266v111h276l39 440h133l-39 -440h310l41 440h133l-39 -440h223v-111h-233l-33 -387h266v-111h-276l-39 -446h-133l38 446h-311l-39 -446h-133l39 446h-223zM442 557h310l34 387h-311z" />
    <glyph glyph-name="dollar" unicode="$" horiz-adv-x="1071" 
d="M47 209l90 90q28 -29 65 -56t80.5 -49t91 -37.5t95.5 -21.5v619q-80 35 -147 72t-115.5 82.5t-75.5 104.5t-27 138q0 77 28.5 137.5t78 104t116 69t142.5 31.5v117h115v-117q109 -8 197 -46t151 -93l-80 -105q-62 54 -127.5 81.5t-140.5 33.5v-510q85 -38 161 -80
t133 -95.5t90 -123.5t33 -164q0 -84 -31.5 -153t-87 -119t-132 -80t-166.5 -37v-152h-115v152q-63 6 -125 25.5t-117.5 47.5t-102 62.5t-77.5 71.5zM248 1155q0 -45 13 -80t40.5 -64t69 -54.5t98.5 -51.5v461q-49 -5 -89.5 -21t-70 -42.5t-45.5 -63.5t-16 -84zM584 133
q62 7 112.5 27t86 52t54.5 75.5t19 97.5q0 61 -18 106.5t-52.5 82.5t-85.5 68t-116 63v-572z" />
    <glyph glyph-name="percent" unicode="%" horiz-adv-x="1503" 
d="M102 1133q0 82 20.5 153t58.5 123t92 81.5t122 29.5q70 0 124 -30.5t90.5 -82.5t55.5 -121t19 -147q0 -83 -20.5 -154.5t-59 -124t-93 -82.5t-122.5 -30q-54 0 -106 23.5t-92 71.5t-64.5 120.5t-24.5 169.5zM156 0l1022 1495h149l-1022 -1495h-149zM229 1133
q0 -55 10 -104.5t29.5 -87t49.5 -59.5t71 -22q44 0 75.5 22.5t51.5 60t29.5 87t9.5 103.5q0 52 -9.5 101.5t-29.5 87.5t-50 61.5t-71 23.5t-72 -22t-52 -59.5t-31.5 -87.5t-10.5 -105zM819 360q0 82 20.5 153t58.5 123.5t92 82t122 29.5q70 0 123.5 -30.5t90.5 -82.5
t56 -121.5t19 -146.5q0 -83 -20.5 -155t-59 -124.5t-93 -82.5t-122.5 -30q-54 0 -106 24t-92 72t-64.5 120t-24.5 169zM948 360q0 -54 9.5 -103.5t29 -87t49 -59.5t70.5 -22q44 0 75.5 22.5t52 60t30.5 86.5t10 103q0 52 -10 102t-30 88t-50.5 61.5t-71.5 23.5t-71.5 -22
t-51 -60t-31 -88t-10.5 -105z" />
    <glyph glyph-name="ampersand" unicode="&#x26;" horiz-adv-x="1300" 
d="M72 365q0 75 25.5 141.5t67 124t95 106t109.5 86.5l-90 103q-51 59 -87 126.5t-36 145.5q0 67 27.5 125.5t74 102t107.5 69t129 25.5q75 0 136.5 -24.5t106 -68t68.5 -102t24 -125.5q0 -65 -24.5 -121t-63.5 -104.5t-88 -90.5t-98 -79l406 -457q37 37 69.5 75.5
t63.5 80.5l96 -90l-70.5 -84t-77.5 -80l222 -250h-183l-141 160q-48 -40 -99.5 -74t-107.5 -58.5t-117.5 -38.5t-130.5 -14q-86 0 -161 30t-131 82.5t-88.5 123.5t-32.5 154zM215 377q0 -57 20.5 -107t56.5 -87.5t85.5 -59t107.5 -21.5q111 0 205 43t172 111l-411 471
q-45 -33 -87.5 -71t-75.5 -81.5t-53 -92.5t-20 -105zM297 1202q0 -30 5.5 -56.5t17.5 -52t30.5 -51.5t44.5 -55l80 -90q35 25 73.5 56.5t70.5 69t52.5 80.5t20.5 91q0 45 -14 82.5t-39.5 64.5t-61.5 41.5t-81 14.5q-40 0 -76 -14.5t-63.5 -40t-43.5 -61.5t-16 -79z" />
    <glyph glyph-name="quotesingle" unicode="'" horiz-adv-x="365" 
d="M115 1298v197h137v-197l-31 -202h-78z" />
    <glyph glyph-name="parenleft" unicode="(" horiz-adv-x="594" 
d="M76 596q0 148 35.5 287t100 263t155 229t200.5 186v-105q-81 -78 -144.5 -173.5t-108 -205t-68 -230.5t-23.5 -251q-1 -132 22 -255.5t67 -235t108.5 -208.5t146.5 -176v-106q-105 77 -195 180t-155.5 228t-103 269.5t-37.5 303.5z" />
    <glyph glyph-name="parenright" unicode=")" horiz-adv-x="594" 
d="M29 -279q81 79 145 176t108 208.5t67 235t22 255.5q0 130 -23.5 251t-67.5 230.5t-107.5 205t-143.5 173.5v105q109 -81 199 -186t155 -229t101 -263t36 -287q0 -159 -37.5 -303.5t-103 -269.5t-155.5 -228t-195 -180v106z" />
    <glyph glyph-name="asterisk" unicode="*" horiz-adv-x="805" 
d="M84 1231l29 86l239 -74l4 252h88l2 -252l244 74l29 -84l-238 -84l144 -205l-72 -53l-152 201l-151 -199l-74 49l146 209z" />
    <glyph glyph-name="plus" unicode="+" horiz-adv-x="1028" 
d="M72 614v125h377v361h131v-361h376v-125h-376v-358h-131v358h-377z" />
    <glyph glyph-name="comma" unicode="," horiz-adv-x="365" 
d="M41 -301q32 54 50 125.5t18 159.5v213h147v-166q0 -53 -12.5 -102.5t-31.5 -92.5t-41.5 -78t-43.5 -59h-86z" />
    <glyph glyph-name="hyphen" unicode="-" horiz-adv-x="649" 
d="M109 387v125h432v-125h-432z" />
    <glyph glyph-name="period" unicode="." horiz-adv-x="365" 
d="M109 0v197h147v-197h-147z" />
    <glyph glyph-name="slash" unicode="/" horiz-adv-x="774" 
d="M57 0l523 1495h137l-520 -1495h-140z" />
    <glyph glyph-name="zero" unicode="0" horiz-adv-x="1239" 
d="M80 737q0 164 33 307t100 248.5t169.5 166.5t240.5 61q91 0 166.5 -28.5t134.5 -80t103 -122.5t73 -155.5t43 -179.5t14 -194q0 -164 -32.5 -307.5t-100 -249.5t-170 -167t-242.5 -61q-123 0 -221.5 56.5t-167.5 158t-106 241t-37 306.5zM231 745q0 -76 10 -153
t30.5 -147.5t51.5 -132t73.5 -106.5t96.5 -71t121 -26q72 0 129 24.5t100.5 68.5t75 104t51 131t29 150.5t9.5 160.5q0 75 -9 151.5t-28.5 147.5t-49.5 133t-73 107.5t-99.5 72t-127.5 26.5q-69 0 -125 -24.5t-99.5 -68.5t-74.5 -104t-51.5 -131t-30 -151t-9.5 -162z" />
    <glyph glyph-name="one" unicode="1" horiz-adv-x="606" 
d="M37 1114v131q44 6 91 27.5t90.5 54.5t80 76t57.5 92h105v-1495h-142v1255q-20 -24 -52.5 -47t-71 -42.5t-80 -33.5t-78.5 -18z" />
    <glyph glyph-name="two" unicode="2" horiz-adv-x="1118" 
d="M68 0l653 799q35 43 60 80t40.5 71t23 66t7.5 65q0 74 -27 130.5t-70.5 95t-99 58t-112.5 19.5q-73 0 -130.5 -23t-98 -63t-64 -94.5t-29.5 -118.5h-141q6 102 44 182.5t100 136.5t143.5 86t173.5 30q91 0 174 -29t146 -84.5t100.5 -136.5t37.5 -185q0 -96 -43 -184
t-118 -178l-488 -586h672v-137h-954z" />
    <glyph glyph-name="three" unicode="3" horiz-adv-x="1167" 
d="M41 178l90 103q79 -81 187 -129t241 -48q87 0 156 24t116.5 67t73 102t25.5 129q0 78 -27.5 137t-77 98t-119.5 58.5t-155 19.5h-148v127h146q73 0 133 18.5t103.5 53.5t67.5 85t24 114q0 46 -19 91t-56.5 81t-93.5 58t-130 22q-64 0 -117.5 -16t-97.5 -42.5t-78 -61
t-58 -71.5l-116 68q31 49 74.5 95t101.5 81t131.5 56.5t163.5 21.5q114 0 196.5 -33.5t136 -87.5t79.5 -122t26 -136q0 -60 -16.5 -111.5t-45.5 -93.5t-70 -74t-89 -53q60 -20 110 -54t86.5 -82t57 -108.5t20.5 -132.5q0 -89 -29.5 -171.5t-91.5 -146t-159.5 -101.5
t-233.5 -38q-85 0 -162.5 16t-143.5 43.5t-120 64.5t-92 79z" />
    <glyph glyph-name="four" unicode="4" horiz-adv-x="1135" 
d="M45 379v100l723 1016h100v-989h228v-127h-228v-379h-137v379h-686zM221 506h510v725z" />
    <glyph glyph-name="five" unicode="5" horiz-adv-x="1188" 
d="M88 166l84 104q35 -33 78.5 -62.5t93.5 -51t105 -34.5t114 -13q91 0 161.5 33t117.5 87.5t71.5 126t24.5 148.5q0 91 -26 164t-73 123t-111.5 77t-141.5 27q-110 0 -190 -53t-128 -146l-110 31l53 768h776v-127h-649l-31 -457q25 25 55.5 46t67.5 36.5t80.5 24t95.5 8.5
q106 0 194.5 -37.5t152 -105t99 -161.5t35.5 -206q0 -117 -37 -216.5t-106 -171.5t-166 -112.5t-217 -40.5q-70 0 -138 15.5t-130 41.5t-114.5 60.5t-90.5 73.5z" />
    <glyph glyph-name="six" unicode="6" horiz-adv-x="1145" 
d="M86 479q0 141 36.5 271.5t100 255.5t149 246t183.5 243h166q-41 -43 -84.5 -97t-86 -113l-83 -120.5t-75 -120t-60.5 -111t-41 -93.5q25 31 59 56t73.5 42.5t83 27t87.5 9.5q108 0 196.5 -37.5t150.5 -103t96 -155t34 -194.5q0 -111 -37 -204.5t-103.5 -161.5t-158 -106
t-199.5 -38q-104 0 -193 34.5t-154 99.5t-102.5 158.5t-37.5 211.5zM231 483q0 -90 26.5 -160t73.5 -119t110.5 -74.5t138.5 -25.5q77 0 141 29t110 80t71.5 120t25.5 148q0 87 -26 155t-72 115.5t-109.5 72t-138.5 24.5q-73 0 -137 -28.5t-111.5 -78t-75 -116t-27.5 -142.5
z" />
    <glyph glyph-name="seven" unicode="7" horiz-adv-x="1057" 
d="M100 1364v131h908l-703 -1495h-160l652 1364h-697z" />
    <glyph glyph-name="eight" unicode="8" horiz-adv-x="1245" 
d="M90 418q0 71 23 133t61.5 111t89.5 83.5t107 51.5q-42 17 -80.5 46.5t-68.5 70t-48 91.5t-18 111q0 96 36.5 171t100.5 127t149 79t183 27q102 0 188 -28.5t148.5 -80.5t97.5 -125.5t35 -163.5q0 -59 -18 -111t-48 -94t-69 -72.5t-82 -47.5q57 -17 108.5 -49.5t90.5 -80
t62 -110t23 -139.5q0 -102 -40 -184t-111.5 -139.5t-169.5 -88.5t-215 -31q-116 0 -214.5 30.5t-169.5 87.5t-111 139t-40 186zM238 422q0 -80 32.5 -139.5t86.5 -98.5t123.5 -58.5t144.5 -19.5t145 19.5t124.5 58t87 96t32.5 132.5q0 71 -26.5 128t-76.5 96.5t-122 61
t-164 21.5q-85 0 -156 -19.5t-122.5 -57.5t-80 -93.5t-28.5 -126.5zM303 1120q0 -64 23.5 -114.5t66.5 -85.5t102 -53.5t130 -18.5q74 0 133.5 19t101 53.5t64 84t22.5 111.5q0 64 -23 115.5t-65 87.5t-101 55t-132 19q-69 0 -127.5 -18.5t-102 -53.5t-68 -86t-24.5 -115z
" />
    <glyph glyph-name="nine" unicode="9" horiz-adv-x="1165" 
d="M70 999q0 115 38 211t104.5 165t157.5 107t197 38q109 0 202 -37t160.5 -104.5t105.5 -162t38 -208.5q0 -146 -40 -281.5t-107.5 -264t-157 -253t-188.5 -248.5l-117 88q33 35 72 82.5t78.5 101l78 109t71 107t56.5 94.5t35 71q-60 -62 -137.5 -91t-165.5 -29
q-102 0 -190 38t-152.5 105t-101.5 159.5t-37 202.5zM219 1004q0 -83 24.5 -153t70.5 -120t110.5 -78t144.5 -28q78 0 143 25.5t112 74t73.5 118t26.5 156.5q0 93 -26.5 165t-73.5 121.5t-113 75t-144 25.5q-79 0 -143.5 -29.5t-110 -81t-70 -121t-24.5 -150.5z" />
    <glyph glyph-name="colon" unicode=":" horiz-adv-x="365" 
d="M109 0v197h147v-197h-147zM109 678v194h147v-194h-147z" />
    <glyph glyph-name="semicolon" unicode=";" horiz-adv-x="365" 
d="M41 -301q32 54 50 125.5t18 159.5v213h147v-166q0 -53 -12.5 -102.5t-31.5 -92.5t-41.5 -78t-43.5 -59h-86zM109 678v194h147v-194h-147z" />
    <glyph glyph-name="less" unicode="&#x3c;" horiz-adv-x="735" 
d="M78 606v117l555 393v-153l-434 -297l434 -299v-158z" />
    <glyph glyph-name="equal" unicode="=" horiz-adv-x="1024" 
d="M133 444v125h758v-125h-758zM133 795v125h758v-125h-758z" />
    <glyph glyph-name="greater" unicode="&#x3e;" horiz-adv-x="735" 
d="M102 209v156l435 297l-435 299v155l555 -395v-117z" />
    <glyph glyph-name="question" unicode="?" horiz-adv-x="899" 
d="M51 1319q68 102 162 151.5t213 49.5q90 0 163 -28.5t124.5 -79t79.5 -119.5t28 -150q0 -65 -17 -121t-44.5 -106.5t-62 -97.5l-68.5 -95q-30 -42 -57.5 -86.5t-48.5 -92t-33.5 -97.5t-12.5 -103v-49h-141v45q0 72 16.5 135t43.5 119t60.5 106.5l67.5 98.5l57.5 82
t48.5 80t33.5 81.5t12.5 87.5q0 54 -18.5 102t-51.5 83.5t-79 56.5t-101 21q-90 0 -159 -44.5t-115 -119.5zM334 0v197h145v-197h-145z" />
    <glyph glyph-name="at" unicode="@" horiz-adv-x="1729" 
d="M92 748q0 106 27.5 205t78 184.5t121 156t156 121t184.5 78t205 27.5q115 0 216.5 -25.5t187.5 -71.5t154 -111t115.5 -144t73 -170t25.5 -189q0 -128 -33.5 -220t-85 -151t-113 -86.5t-116.5 -27.5q-74 0 -117 32t-57 84q-27 -23 -61 -44t-74 -37t-86.5 -25.5
t-97.5 -9.5q-69 0 -125.5 19.5t-96.5 55t-62 85t-22 110.5q0 70 30 125t86 93t136 57.5t181 19.5h184v37q0 56 -17.5 91t-48.5 55t-72 27t-89 7q-153 0 -258 -55l-46 90q59 34 137 50.5t156 16.5q172 0 259 -65t87 -209v-436q0 -48 24 -67t71 -19q36 0 77.5 23t77 71
t59 122.5t23.5 176.5q0 122 -46.5 235t-134.5 199.5t-214.5 138.5t-286.5 52q-94 0 -181.5 -24.5t-163.5 -69t-138.5 -107t-107 -138.5t-69 -163.5t-24.5 -182.5q0 -92 24.5 -178.5t69 -162.5t107 -139t138.5 -108.5t163.5 -70.5t181.5 -25q60 0 128.5 12.5t146.5 49.5
l37 -80q-85 -38 -163 -53t-149 -15q-107 0 -205.5 27.5t-184 78t-156 121t-121 156.5t-78 185t-27.5 205zM612 598q0 -75 51 -121.5t156 -46.5q39 0 79 9.5t77 25t70 37t59 45.5v244h-178q-153 0 -233.5 -48t-80.5 -145z" />
    <glyph glyph-name="A" unicode="A" horiz-adv-x="1368" 
d="M57 0l564 1509h86l565 -1509h-158l-192 532h-521l-192 -532h-152zM451 664h421l-210 593z" />
    <glyph glyph-name="B" unicode="B" horiz-adv-x="1174" 
d="M160 0v1495h368q99 0 182.5 -25t143.5 -73t93.5 -118t33.5 -159q0 -64 -16 -117.5t-45 -96.5t-69.5 -75t-88.5 -53q48 -8 105 -33.5t106 -70.5t81.5 -111t32.5 -153q0 -94 -35 -169.5t-99 -129t-155 -82.5t-202 -29h-436zM301 131h285q76 0 140.5 17t111.5 52.5
t73.5 89.5t26.5 128q0 70 -30 122.5t-79.5 87t-113.5 51.5t-131 17h-283v-565zM301 827h213q75 0 134 20.5t100.5 58t63.5 90t22 116.5q0 124 -83.5 188t-238.5 64h-211v-537z" />
    <glyph glyph-name="C" unicode="C" horiz-adv-x="1477" 
d="M92 748q0 104 25 202t71.5 183.5t112.5 156.5t147 122.5t176 79.5t199 28q184 0 318.5 -63t224.5 -173l-104 -92q-82 90 -190.5 140t-248.5 50q-83 0 -158 -22.5t-139.5 -63t-117 -98t-89.5 -127t-57 -150t-20 -167.5q0 -146 48.5 -264.5t129 -202t185.5 -129t218 -45.5
q144 0 258 56t211 165l103 -86q-42 -52 -99 -101t-129 -87.5t-159 -61.5t-189 -23q-96 0 -187.5 25.5t-172 73.5t-148 116.5t-116.5 154.5t-76 187.5t-27 215.5z" />
    <glyph glyph-name="D" unicode="D" horiz-adv-x="1378" 
d="M160 0v1495h340q174 0 319 -52.5t248.5 -149t161 -232.5t57.5 -303q0 -169 -58 -308.5t-163 -239.5t-251 -155t-322 -55h-332zM301 127h193q151 0 270.5 49t202 134t126.5 200t44 246q0 136 -46.5 248.5t-129.5 193.5t-197.5 125.5t-251.5 44.5h-211v-1241z" />
    <glyph glyph-name="E" unicode="E" horiz-adv-x="1094" 
d="M160 0v1495h790v-131h-649v-537h608v-131h-608v-565h688v-131h-829z" />
    <glyph glyph-name="F" unicode="F" horiz-adv-x="948" 
d="M160 0v1495h698v-131h-557v-541h512v-131h-512v-692h-141z" />
    <glyph glyph-name="G" unicode="G" horiz-adv-x="1630" 
d="M92 745q0 112 28 213t78.5 187.5t121.5 155.5t157 118t184.5 75t204.5 26q88 0 166 -15t146 -43.5t127 -69t110 -92.5l-90 -104q-52 51 -104 86t-108 57.5t-117.5 32.5t-133.5 10q-131 0 -244 -47.5t-196.5 -132.5t-131.5 -202.5t-48 -256.5q0 -91 22 -172.5t62 -151.5
t97 -126.5t126.5 -96.5t150 -61.5t168.5 -21.5q96 0 182.5 28.5t156.5 79.5t119 122t69 157h-496v133h660q-3 -92 -29.5 -176.5t-72.5 -157.5t-109.5 -132.5t-139.5 -102t-162.5 -66t-179.5 -23.5q-103 0 -200.5 25t-183.5 72.5t-158 115.5t-123.5 153.5t-80 187
t-28.5 216.5z" />
    <glyph glyph-name="H" unicode="H" horiz-adv-x="1405" 
d="M160 0v1495h141v-666h801v666h143v-1495h-143v696h-801v-696h-141z" />
    <glyph glyph-name="I" unicode="I" horiz-adv-x="461" 
d="M160 0v1495h141v-1495h-141z" />
    <glyph glyph-name="J" unicode="J" horiz-adv-x="717" 
d="M57 -10v129q8 -2 25.5 -2.5l36.5 -1t35 -0.5h24q55 0 100.5 21.5t78.5 59t51 88t18 109.5v1102h141v-1098q0 -91 -29 -167.5t-81 -131.5t-123.5 -85.5t-155.5 -30.5h-24q-16 0 -34 1t-35 2.5t-28 4.5z" />
    <glyph glyph-name="K" unicode="K" horiz-adv-x="1214" 
d="M160 0v1495h141v-659l612 659h181l-609 -649l684 -846h-180l-600 743l-88 -92v-651h-141z" />
    <glyph glyph-name="L" unicode="L" horiz-adv-x="987" 
d="M160 0v1495h141v-1364h631v-131h-772z" />
    <glyph glyph-name="M" unicode="M" horiz-adv-x="1675" 
d="M160 0v1495h139l541 -778l532 778h144v-1495h-142v1260l-502 -728h-69l-502 723v-1255h-141z" />
    <glyph glyph-name="N" unicode="N" horiz-adv-x="1489" 
d="M160 0v1495h141l885 -1243v1243h143v-1495h-133l-895 1253v-1253h-141z" />
    <glyph glyph-name="O" unicode="O" horiz-adv-x="1686" 
d="M92 750q0 109 26 208.5t74 185t115.5 155t151 118.5t180 76t201.5 27q109 0 207 -27t182 -76.5t151 -119t114.5 -155t73 -185t25.5 -207.5q0 -109 -26.5 -209t-75 -186t-116.5 -156t-151 -120t-179.5 -77t-200.5 -27q-105 0 -201.5 26.5t-180 76t-152 119t-117 155.5
t-75 186.5t-26.5 211.5zM242 750q0 -137 47.5 -253.5t129 -202t191 -133.5t234.5 -48q124 0 233.5 47t191 132t128.5 202t47 258q0 134 -45 249.5t-125.5 200t-191.5 132.5t-242 48q-129 0 -238.5 -48t-189.5 -133t-125 -200.5t-45 -250.5z" />
    <glyph glyph-name="P" unicode="P" horiz-adv-x="1106" 
d="M160 0v1495h381q120 0 212 -32.5t154.5 -90t94.5 -136.5t32 -171q0 -94 -34 -174.5t-96 -140t-149.5 -93.5t-195.5 -34h-258v-623h-141zM301 754h244q85 0 149 23.5t107 64.5t64.5 98t21.5 125q0 141 -91.5 220t-277.5 79h-217v-610z" />
    <glyph glyph-name="Q" unicode="Q" horiz-adv-x="1686" 
d="M92 750q0 109 26 208.5t74 185t115.5 155t151 118.5t180 76t201.5 27q109 0 207 -27t182 -76.5t151 -119t114.5 -155t73 -185t25.5 -207.5q0 -91 -18.5 -175.5t-53 -160t-83 -141t-109.5 -117.5q42 -26 85.5 -44.5t80.5 -21.5l-104 -117q-47 14 -92 40.5t-87 58.5
q-81 -45 -173.5 -71t-194.5 -26q-105 0 -201.5 26.5t-180 76t-152 119t-117 155.5t-75 186.5t-26.5 211.5zM242 750q0 -137 47.5 -253.5t129 -202t191 -133.5t234.5 -48q141 0 262 59q-32 35 -58 69t-40 62l96 78q17 -32 46 -67t64 -70q53 42 95.5 96.5t72.5 119t46 138
t16 154.5q0 134 -45 249.5t-125.5 200t-191.5 132.5t-242 48q-129 0 -238.5 -48t-189.5 -133t-125 -200.5t-45 -250.5z" />
    <glyph glyph-name="R" unicode="R" horiz-adv-x="1174" 
d="M160 0v1495h418q100 0 185.5 -31t148.5 -87.5t99 -135t36 -172.5q0 -97 -37.5 -176t-101.5 -135t-148.5 -86.5t-177.5 -30.5h-39l567 -641h-184l-625 709v-709h-141zM301 760h246q74 0 138.5 20t112 59.5t74.5 98t27 135.5q0 64 -25 117.5t-70 92t-107 60t-136 21.5h-260
v-604z" />
    <glyph glyph-name="S" unicode="S" horiz-adv-x="1022" 
d="M92 129l86 107q65 -57 149.5 -90t174.5 -33q61 0 114 17t93 50t63 80t23 107q0 65 -25.5 114t-67.5 88t-96.5 70l-111.5 61l-142 76t-125 90t-89 119.5t-34 163.5q0 83 30 151.5t83.5 117t127 75.5t159.5 27q115 0 211 -34t180 -112l-88 -108q-66 64 -137 90t-166 26
q-49 0 -94.5 -14.5t-80 -43.5t-55 -71.5t-20.5 -97.5q0 -67 24.5 -114t68 -84t103 -69l130.5 -69q68 -35 133 -73t116 -89t82 -119t31 -163q0 -92 -35.5 -165.5t-95.5 -126t-139 -80.5t-166 -28q-112 0 -218 38t-196 116z" />
    <glyph glyph-name="T" unicode="T" horiz-adv-x="979" 
d="M70 1364v131h839v-131h-350v-1364h-143v1364h-346z" />
    <glyph glyph-name="U" unicode="U" horiz-adv-x="1411" 
d="M150 553v942h143v-942q0 -105 33 -187.5t89 -139.5t131 -87t159 -30q83 0 158 30t132 87t91 139.5t34 187.5v942h142v-942q0 -131 -43 -237.5t-118 -182t-177 -117t-219 -41.5q-119 0 -221 40.5t-176 115.5t-116 182t-42 240z" />
    <glyph glyph-name="V" unicode="V" horiz-adv-x="1317" 
d="M57 1495h144l458 -1225l461 1225h140l-574 -1528h-57z" />
    <glyph glyph-name="W" unicode="W" horiz-adv-x="1892" 
d="M68 1495h143l344 -1186l344 1186h96l342 -1184l346 1184h142l-439 -1495h-100l-342 1184l-346 -1184h-98z" />
    <glyph glyph-name="X" unicode="X" horiz-adv-x="1397" 
d="M63 0l553 803l-473 692h172l387 -563l390 563h161l-469 -688l551 -807h-172l-465 680l-469 -680h-166z" />
    <glyph glyph-name="Y" unicode="Y" horiz-adv-x="1303" 
d="M49 1495h166l438 -651l437 651h161l-532 -790v-705h-144v707z" />
    <glyph glyph-name="Z" unicode="Z" horiz-adv-x="1276" 
d="M63 0l873 1360h-758v135h1008l-877 -1360h869v-135h-1115z" />
    <glyph glyph-name="bracketleft" unicode="[" horiz-adv-x="567" 
d="M154 -367v1862h352v-123h-217v-1616h217v-123h-352z" />
    <glyph glyph-name="backslash" unicode="\" horiz-adv-x="774" 
d="M57 1495h140l520 -1495h-137z" />
    <glyph glyph-name="bracketright" unicode="]" horiz-adv-x="567" 
d="M61 -244h218v1616h-218v123h353v-1862h-353v123z" />
    <glyph glyph-name="asciicircum" unicode="^" horiz-adv-x="989" 
d="M70 756l354 739h135l354 -739h-153l-271 596l-266 -596h-153z" />
    <glyph glyph-name="underscore" unicode="_" horiz-adv-x="1024" 
d="M0 -129h1024v-107h-1024v107z" />
    <glyph glyph-name="grave" unicode="`" horiz-adv-x="956" 
d="M319 1282h144l176 -283h-139z" />
    <glyph glyph-name="a" unicode="a" horiz-adv-x="905" 
d="M68 246q0 73 31.5 129t90 94t140 57t182.5 19h150v37q0 49 -15 80.5t-42 49.5t-65 24.5t-83 6.5q-78 0 -140 -12.5t-114 -40.5l-49 103q28 17 62.5 29.5t72.5 21t78 12.5t79 4q174 0 260.5 -64t86.5 -188v-608h-134v80q-55 -47 -126.5 -76t-159.5 -29q-70 0 -126.5 19.5
t-96 55t-61 85.5t-21.5 111zM205 246q0 -38 16 -66t42.5 -47t61 -28t72.5 -9q79 0 143 27.5t119 71.5v237h-112q-168 0 -255 -43t-87 -143z" />
    <glyph glyph-name="b" unicode="b" horiz-adv-x="1001" 
d="M129 0v1495h133v-799q17 31 45 60.5t64.5 52.5t80 37t91.5 14q86 0 157.5 -31t123 -88t80 -138t28.5 -181q0 -89 -27.5 -169.5t-78.5 -142.5t-123 -98.5t-160 -36.5q-51 0 -94.5 14t-79.5 37t-63 52.5t-44 60.5v-139h-133zM254 422q0 -65 20.5 -124t56.5 -103.5t86 -70.5
t109 -26q65 0 115.5 26.5t84.5 70.5t51.5 102t17.5 121q0 69 -17.5 127t-52 100.5t-85.5 66t-118 23.5q-59 0 -108 -26.5t-84.5 -70t-55.5 -100t-20 -116.5z" />
    <glyph glyph-name="c" unicode="c" horiz-adv-x="905" 
d="M70 420q0 90 31 170t86 140t130.5 95t165.5 35q72 0 128 -16.5t99.5 -42t76 -56.5t55.5 -61l-101 -78q-21 27 -46 50.5t-55.5 41t-67.5 27.5t-80 10q-65 0 -117.5 -25.5t-90 -68.5t-57.5 -98.5t-20 -116.5q0 -71 21 -131.5t58.5 -104t89.5 -68t113 -24.5q89 0 154.5 41.5
t118.5 112.5l96 -72q-29 -42 -67.5 -79.5t-85 -65t-99.5 -44t-112 -16.5q-98 0 -176.5 34.5t-133.5 95t-84.5 141.5t-29.5 174z" />
    <glyph glyph-name="d" unicode="d" horiz-adv-x="1001" 
d="M70 418q0 99 30.5 180.5t83 139.5t124 90t153.5 32q47 0 89.5 -12.5t78 -34.5t64 -51t46.5 -62v795h133v-1495h-133v135q-17 -31 -45.5 -59.5t-65.5 -51t-82 -36t-95 -13.5q-87 0 -157.5 35.5t-120 96.5t-76.5 141.5t-27 169.5zM207 418q0 -64 17 -122t50.5 -102
t82.5 -70t114 -26q61 0 111.5 26t86.5 70t56 103t20 125q0 60 -19 116.5t-54.5 100t-86 70t-112.5 26.5t-111 -23.5t-83.5 -66t-53 -100.5t-18.5 -127z" />
    <glyph glyph-name="e" unicode="e" horiz-adv-x="952" 
d="M70 428q0 86 29 164t83 137.5t131 95t174 35.5q98 0 172.5 -36t125 -97.5t76.5 -142t28 -170.5h-684q1 -67 22 -124.5t59 -100t92.5 -67t123.5 -24.5q47 0 86.5 8t74 23t65 36.5t58.5 47.5l86 -84q-29 -30 -66 -58t-83 -49t-102 -34t-123 -13q-100 0 -179.5 34.5
t-134.5 95t-84.5 143.5t-29.5 180zM211 520h528q-8 42 -28 81.5t-52.5 70t-77 49t-100.5 18.5q-58 0 -104.5 -17t-80.5 -46.5t-55.5 -69.5t-29.5 -86z" />
    <glyph glyph-name="f" unicode="f" horiz-adv-x="473" 
d="M25 713v123h135v475q0 48 15.5 83.5t42 58t60.5 33.5t72 11h18h24q12 0 23.5 -0.5t18.5 -1.5v-121q-14 1 -26 2q-11 1 -20.5 1t-14.5 -1q-18 -1 -32.5 -6.5t-25 -17.5t-16.5 -32t-6 -50v-434h143v-123h-143v-713h-133v713h-135z" />
    <glyph glyph-name="g" unicode="g" horiz-adv-x="1001" 
d="M70 412q0 89 27.5 170t78.5 143t122.5 98.5t160.5 36.5q50 0 93.5 -14t79.5 -36.5t63 -51.5t44 -60v138h133v-830q0 -101 -32 -175.5t-87.5 -123.5t-129.5 -72.5t-158 -23.5q-97 0 -187.5 30t-158.5 95l76 94q63 -54 131 -76t137 -22q55 0 105 15.5t88 47t60.5 78.5
t22.5 109v153q-19 -35 -47.5 -64t-65 -50.5t-79 -33.5t-90.5 -12q-86 0 -157 31t-122 88t-79.5 138t-28.5 180zM207 420q0 -70 17.5 -129t52 -102t85 -67t115.5 -24q60 0 109.5 26.5t84.5 71t54.5 101.5t19.5 119q0 64 -19.5 122t-55.5 102t-86 69.5t-111 25.5
q-65 0 -114.5 -26t-83 -70t-51 -101t-17.5 -118z" />
    <glyph glyph-name="h" unicode="h" horiz-adv-x="940" 
d="M129 0v1495h133v-780q18 31 44.5 58t60 46t72.5 30t81 11q70 0 127 -21.5t97.5 -61.5t62.5 -96t22 -126v-555h-133v532q0 48 -14.5 86t-40 64.5t-61 40.5t-78.5 14q-51 0 -95 -20t-76.5 -54.5t-50.5 -81t-18 -98.5v-483h-133z" />
    <glyph glyph-name="i" unicode="i" horiz-adv-x="391" 
d="M129 0v836h133v-836h-133zM129 1049v196h133v-196h-133z" />
    <glyph glyph-name="j" unicode="j" horiz-adv-x="391" 
d="M-27 -250q26 -6 45.5 -7t40.5 -1q12 1 24.5 3.5t22.5 9t16.5 18.5t6.5 32v1031h133v-1041q0 -48 -16 -80.5t-42.5 -53t-60 -29.5t-67.5 -9q-31 0 -50.5 2t-43.5 8zM129 1049v196h133v-196h-133z" />
    <glyph glyph-name="k" unicode="k" horiz-adv-x="897" 
d="M129 0v1495h133v-1028l387 369h187l-377 -353l403 -483h-176l-326 393l-98 -90v-303h-133z" />
    <glyph glyph-name="l" unicode="l" horiz-adv-x="391" 
d="M129 0v1495h133v-1495h-133z" />
    <glyph glyph-name="m" unicode="m" horiz-adv-x="1454" 
d="M129 0v836h133v-113q18 30 45.5 55t60.5 43.5t70.5 28.5t77.5 10q103 0 165 -41t93 -110q23 34 56 62t71 48t79 30.5t81 10.5q75 0 128 -23.5t87.5 -64t50.5 -95.5t16 -118v-559h-135v543q0 91 -44.5 142.5t-123.5 51.5q-50 0 -93 -18.5t-75 -50t-50.5 -73.5t-18.5 -89
v-506h-133v543q0 91 -43 142.5t-129 51.5q-49 0 -92 -19t-75 -51t-50.5 -74t-18.5 -89v-504h-133z" />
    <glyph glyph-name="n" unicode="n" horiz-adv-x="944" 
d="M129 0v836h133v-121q19 34 46.5 60.5t61.5 45.5t72.5 29t79.5 10q71 0 128 -22t97.5 -61.5t62 -96t21.5 -125.5v-555h-133v532q0 45 -12.5 82.5t-37 64.5t-61.5 42.5t-85 15.5q-59 0 -103.5 -23t-75 -60t-46 -82t-15.5 -89v-483h-133z" />
    <glyph glyph-name="o" unicode="o" horiz-adv-x="1010" 
d="M70 420q0 92 32 172.5t89.5 140t136.5 93.5t174 34q94 0 174.5 -33.5t139 -92t91.5 -138.5t33 -172q0 -96 -33.5 -178t-92 -142.5t-138 -94.5t-172.5 -34q-92 0 -171.5 32.5t-138 91t-91.5 140.5t-33 181zM207 420q0 -71 21.5 -130t60.5 -102t93.5 -66.5t119.5 -23.5
q70 0 125.5 24.5t94.5 67.5t60 102t21 128q0 70 -22.5 128.5t-62 99.5t-95 64t-121.5 23q-65 0 -119.5 -24t-93.5 -66t-60.5 -100t-21.5 -125z" />
    <glyph glyph-name="p" unicode="p" horiz-adv-x="1001" 
d="M129 -367v1203h133v-138q17 31 45 60t65.5 51.5t82.5 36.5t96 14q87 0 157 -36t120 -97t77 -141t27 -168q0 -100 -30.5 -181.5t-83 -139.5t-124 -90t-153.5 -32q-47 0 -89.5 12.5t-78.5 34.5t-64.5 51t-46.5 62v-502h-133zM254 414q0 -60 19.5 -117t55 -101t85.5 -71
t112 -27q61 0 111 24t85 66.5t54 101.5t19 128q0 64 -17 121.5t-51 101t-83.5 69t-113.5 25.5q-60 0 -111 -25.5t-87.5 -69t-57 -102t-20.5 -124.5z" />
    <glyph glyph-name="q" unicode="q" horiz-adv-x="1001" 
d="M70 412q0 89 27.5 170t78.5 143t122.5 98.5t160.5 36.5q50 0 93.5 -14t79.5 -36.5t63 -51.5t44 -60v138h133v-1203h-133v502q-18 -33 -46.5 -62t-65 -51t-79.5 -34.5t-91 -12.5q-86 0 -157 31t-122 88t-79.5 138t-28.5 180zM207 420q0 -70 17.5 -129t52 -102t85 -67
t115.5 -24q60 0 109.5 26.5t84.5 71t54.5 101.5t19.5 119q0 64 -19.5 122t-55.5 102t-86 69.5t-111 25.5q-65 0 -114.5 -26t-83 -70t-51 -101t-17.5 -118z" />
    <glyph glyph-name="r" unicode="r" horiz-adv-x="666" 
d="M129 0v836h133v-115q35 62 92 100.5t129 38.5q51 0 89.5 -14.5t76.5 -48.5l-67 -109q-29 25 -59 36t-62 11q-41 0 -77 -21.5t-63 -58t-43 -84.5t-16 -102v-469h-133z" />
    <glyph glyph-name="s" unicode="s" horiz-adv-x="739" 
d="M76 76l71 102q50 -38 109.5 -59t110.5 -21q30 0 58.5 8.5t51 24t36 38t13.5 50.5q0 34 -14.5 58t-40 41.5t-59 31l-70.5 27.5q-44 15 -88 35t-79.5 49.5t-58 71t-22.5 100.5q0 52 23 94t61 71.5t87 45.5t102 16q69 0 137 -18.5t131 -65.5l-62 -102q-49 35 -101.5 51
t-104.5 16q-25 0 -50 -6t-45 -18.5t-32.5 -32t-12.5 -47.5q0 -27 12.5 -47t35 -35.5t54.5 -29t70 -27.5q46 -16 93 -37t84.5 -52.5t61.5 -76.5t24 -109q0 -53 -24 -98t-64 -78t-93 -51.5t-110 -18.5q-84 0 -161 27t-134 72z" />
    <glyph glyph-name="t" unicode="t" horiz-adv-x="522" 
d="M33 713v123h123v391h133v-391h157v-123h-157v-492q0 -49 27 -75.5t87 -26.5h46v-123q-13 -1 -24 -1q-9 -1 -17 -1h-9q-56 0 -101 12t-76.5 38.5t-48.5 69.5t-17 105v494h-123z" />
    <glyph glyph-name="u" unicode="u" horiz-adv-x="948" 
d="M117 281v555h133v-533q0 -43 13 -81t37.5 -66t61 -44t84.5 -16q56 0 100.5 23.5t75.5 61t47.5 82.5t16.5 89v484h133v-836h-133v121q-37 -65 -105.5 -105.5t-156.5 -40.5q-74 0 -131 21.5t-96 61.5t-59.5 96.5t-20.5 126.5z" />
    <glyph glyph-name="v" unicode="v" horiz-adv-x="842" 
d="M29 836h145l248 -570l252 570h139l-391 -873z" />
    <glyph glyph-name="w" unicode="w" horiz-adv-x="1290" 
d="M29 836h143l229 -555l246 565l248 -561l225 551h142l-361 -873l-254 602l-256 -602z" />
    <glyph glyph-name="x" unicode="x" horiz-adv-x="866" 
d="M33 0l319 457l-266 379h160l186 -269l184 269h158l-262 -377l322 -459h-164l-238 346l-239 -346h-160z" />
    <glyph glyph-name="y" unicode="y" horiz-adv-x="838" 
d="M31 836h143l252 -662l242 662h139l-391 -1024q-15 -39 -35 -74t-47.5 -61t-64.5 -41t-85 -15q-38 0 -68 5t-61 18v125q23 -13 46 -19t49 -6q37 0 62 12.5t42.5 33.5t30 49t24.5 59l39 98z" />
    <glyph glyph-name="z" unicode="z" horiz-adv-x="868" 
d="M39 0l532 711h-454v125h702l-534 -713h495v-123h-741z" />
    <glyph glyph-name="braceleft" unicode="{" horiz-adv-x="588" 
d="M66 522v123q51 0 79.5 29t42.5 77t17.5 109.5t3.5 126.5q0 109 11.5 192.5t45.5 148.5t96.5 114.5t165.5 91.5v-98q-54 -39 -89.5 -77t-56 -85t-28.5 -109t-8 -149q0 -73 -3 -140t-17.5 -123.5t-44 -99.5t-82.5 -69q53 -26 82.5 -69.5t44 -100t17.5 -123t3 -139.5
q0 -88 8 -150t28.5 -109t56 -84.5t89.5 -76.5v-99q-103 42 -165.5 91.5t-96.5 114.5t-45.5 148.5t-11.5 192.5q0 64 -3.5 125.5t-17.5 109.5t-42.5 77.5t-79.5 29.5z" />
    <glyph glyph-name="bar" unicode="|" horiz-adv-x="453" 
d="M160 -367v1862h133v-1862h-133z" />
    <glyph glyph-name="braceright" unicode="}" horiz-adv-x="588" 
d="M59 -268q55 39 90.5 76.5t56 84.5t28.5 109t8 150q0 73 3 139.5t17.5 123t44 100t82.5 69.5q-53 26 -82.5 69t-44 99.5t-17.5 123.5t-3 140q0 87 -8 149t-28.5 109t-56 85t-90.5 77v98q103 -42 166 -91.5t97 -114.5t45.5 -148.5t11.5 -192.5q0 -65 3.5 -126.5
t17.5 -109.5t42.5 -77t79.5 -29v-123q-51 0 -79.5 -29.5t-42.5 -77.5t-17.5 -109.5t-3.5 -125.5q0 -109 -11.5 -192.5t-45.5 -148.5t-97 -114.5t-166 -91.5v99z" />
    <glyph glyph-name="asciitilde" unicode="~" horiz-adv-x="956" 
d="M94 612q4 52 15 103t35 92t64 66.5t103 25.5q25 0 50 -8t49 -20.5t47 -28.5l43 -31q42 -31 77 -54.5t64 -23.5q37 0 61 45t27 117h133q-5 -52 -16 -103.5t-35 -93t-64 -67t-102 -25.5q-25 0 -50.5 8t-50 21t-47 29t-42.5 32q-45 34 -77 55t-63 21q-37 0 -61 -42.5
t-27 -117.5h-133z" />
    <glyph glyph-name="uni00A0" unicode="&#xa0;" horiz-adv-x="184" 
 />
    <glyph glyph-name="exclamdown" unicode="&#xa1;" horiz-adv-x="410" 
d="M129 0v756l29 450h88l30 -450v-756h-147zM129 1298v197h147v-197h-147z" />
    <glyph glyph-name="cent" unicode="&#xa2;" horiz-adv-x="920" 
d="M70 420q0 84 27.5 159.5t76.5 134.5t117 96.5t149 45.5v158h97v-158q57 -6 104.5 -23.5t85 -41.5t66.5 -52t49 -55l-101 -78q-37 48 -86.5 83t-117.5 44v-633q71 11 125.5 50.5t99.5 101.5l96 -72q-27 -38 -61.5 -72.5t-75 -61.5t-87 -45t-97.5 -24v-139h-97v139
q-86 10 -154.5 48t-116.5 97t-73.5 135.5t-25.5 162.5zM205 426q0 -65 17 -120t48 -97.5t74.5 -70t95.5 -36.5v631q-54 -10 -97 -38t-74 -69.5t-47.5 -92.5t-16.5 -107z" />
    <glyph glyph-name="sterling" unicode="&#xa3;" horiz-adv-x="1143" 
d="M76 139q0 81 61 126.5t166 45.5q59 0 108 -14.5t93 -36.5q6 22 10 44t4 44q0 31 -3.5 60t-14.5 55h-340v86h305q-11 23 -24.5 45.5t-28.5 44.5h-252v84h192l-64.5 90t-58.5 90.5t-42.5 98.5t-16.5 114q0 91 32 166t89.5 127.5t138 81.5t178.5 29q103 0 183 -31.5
t135 -83.5t84 -120.5t30 -141.5h-149q-5 55 -26.5 100.5t-57.5 77.5t-86.5 50t-114.5 18q-63 0 -115.5 -18t-91 -52.5t-59.5 -84.5t-21 -114q0 -62 18.5 -113.5t48 -98t65 -91.5t69.5 -94h344v-84h-291q13 -22 22.5 -44.5l18.5 -45.5h250v-86h-225q5 -22 7.5 -44t2.5 -48
q0 -95 -28 -174q20 -15 43.5 -30t48.5 -27.5t51 -20.5t51 -8q39 0 63 18t37 47t17.5 65.5t5.5 73.5h131q1 -68 -9.5 -129.5t-39 -108t-78 -74.5t-125.5 -28q-38 0 -74.5 11t-70 28t-64 37.5t-57.5 40.5q-50 -57 -118.5 -87t-149.5 -30q-39 0 -76.5 11.5t-66.5 32.5
t-46.5 51.5t-17.5 68.5zM197 139q0 -17 8 -29t21 -19.5t30 -11t35 -3.5q46 0 88 23.5t70 60.5q-25 18 -66.5 33.5t-81.5 15.5q-104 0 -104 -70z" />
    <glyph glyph-name="currency" unicode="&#xa4;" horiz-adv-x="1152" 
d="M92 392l208 216q-28 40 -38 78t-10 94q0 48 10 90t38 82l-208 216l116 108l200 -216q72 48 164 48q96 0 168 -48l204 216l116 -120l-208 -204q28 -40 38 -80t10 -92q0 -96 -52 -172l208 -216l-116 -108l-200 216q-72 -48 -168 -48q-92 0 -164 48l-200 -216zM400 780
q0 -80 50 -128t122 -48q80 0 128 48t48 128t-50 130t-126 50t-124 -50t-48 -130z" />
    <glyph glyph-name="yen" unicode="&#xa5;" horiz-adv-x="1274" 
d="M37 1495h164l436 -651l438 651h162l-532 -790v-152h358v-84h-358v-145h358v-84h-358v-240h-142v240h-377v84h377v145h-377v84h377v154z" />
    <glyph glyph-name="brokenbar" unicode="&#xa6;" horiz-adv-x="453" 
d="M160 -367v777h133v-777h-133zM160 719v776h133v-776h-133z" />
    <glyph glyph-name="section" unicode="&#xa7;" horiz-adv-x="1331" 
d="M66 645q0 56 18 110.5t49.5 103.5t75 89t94.5 68q-40 37 -63 84t-23 106q0 77 31 135.5t88 98.5t139 60t184 20q72 0 141 -13t131 -34.5t114 -50.5t90 -60l-80 -105q-31 27 -75 51t-96.5 42t-111 28.5t-119.5 10.5q-77 0 -130.5 -13.5t-88 -36t-50 -53.5t-15.5 -65
q0 -41 19.5 -70.5t56.5 -54t91 -47t123 -48.5l203 -77q84 -32 156.5 -70.5t126 -89t84.5 -116t31 -152.5q0 -57 -18 -112t-49.5 -104t-75.5 -89t-95 -68q40 -35 63 -83.5t23 -107.5q0 -76 -30.5 -134.5t-87.5 -98t-139 -60t-185 -20.5q-68 0 -136.5 13t-131 34.5t-115.5 50
t-90 60.5l77 104q31 -27 76.5 -50.5t98.5 -41.5t111 -28.5t116 -10.5q77 0 131 13.5t88.5 37t50.5 54t16 65.5q0 40 -20 69t-57.5 53t-91.5 46l-123 49l-203 78q-83 31 -155.5 70t-126 90t-84.5 117t-31 153zM215 651q0 -64 22.5 -110t66 -82.5t107 -66t146.5 -60.5l41 -16
l64 -24l75 -28.5l74 -29t61.5 -25t36.5 -16.5q91 45 146 120t55 174q0 64 -22 111t-65.5 84t-107 67t-147.5 60q-13 4 -41 15l-64 24.5l-75 28.5l-74 28.5l-61.5 24.5t-36.5 16q-91 -43 -146 -119.5t-55 -175.5z" />
    <glyph glyph-name="dieresis" unicode="&#xa8;" horiz-adv-x="956" 
d="M250 999v197h135v-197h-135zM571 999v197h136v-197h-136z" />
    <glyph glyph-name="copyright" unicode="&#xa9;" horiz-adv-x="1729" 
d="M92 748q0 106 27.5 205t78 184.5t121 156t156 121t184.5 78t205 27.5t205 -27.5t184.5 -78t156 -121t121 -156t78 -184.5t27.5 -205q0 -107 -27.5 -205.5t-78 -184.5t-121 -156.5t-156 -121t-184.5 -78t-205 -27.5q-107 0 -205.5 27.5t-184 78t-156 121t-121 156.5
t-78 185t-27.5 205zM180 745q0 -94 24.5 -181t69 -163t106.5 -139t138 -107.5t163.5 -69t182.5 -24.5t182.5 24.5t163.5 69t138 107.5t106.5 139t69 163t24.5 181t-24.5 181.5t-69 164t-106.5 139.5t-138 108t-163.5 69.5t-182.5 24.5t-182.5 -24.5t-163.5 -69.5t-138 -108
t-106.5 -139.5t-69 -164t-24.5 -181.5zM428 760q0 91 32.5 173.5t90.5 145t138 99t175 36.5q110 0 192 -37t136 -102l-76 -67q-46 51 -106.5 77.5t-139.5 26.5q-73 0 -134 -27t-105.5 -74.5t-69 -111.5t-24.5 -137q0 -84 27 -152t73 -117t105 -75.5t124 -26.5q82 0 148 31.5
t123 91.5l73 -63q-24 -31 -59 -60t-78.5 -51.5t-95.5 -36.5t-111 -14q-87 0 -166.5 33.5t-140 95t-96 148.5t-35.5 194z" />
    <glyph glyph-name="ordfeminine" unicode="&#xaa;" horiz-adv-x="881" 
d="M129 590v98h600v-98h-600zM129 1020q0 61 25.5 106.5t73 76t114 46t147.5 15.5h119v30q0 38 -11.5 62.5t-33 39t-51.5 20t-66 5.5q-63 0 -113 -10.5t-93 -32.5l-41 88q48 26 111 40t128 14q140 0 210.5 -51.5t70.5 -153.5v-494h-113v62q-45 -37 -101 -59.5t-128 -22.5
q-56 0 -102 16t-78.5 44.5t-50 69t-17.5 89.5zM246 1020q0 -29 12 -51.5t32.5 -37.5t48 -22.5t58.5 -7.5q65 0 114.5 22.5t94.5 59.5v184h-88q-137 0 -204.5 -34.5t-67.5 -112.5z" />
    <glyph glyph-name="guillemotleft" unicode="&#xab;" horiz-adv-x="721" 
d="M49 399v70l303 283v-146l-176 -172l176 -172v-147zM344 399v70l303 283v-146l-176 -172l176 -172v-147z" />
    <glyph glyph-name="logicalnot" unicode="&#xac;" horiz-adv-x="1536" 
d="M212 728v192h1084v-568h-180v376h-904z" />
    <glyph glyph-name="uni00AD" unicode="&#xad;" horiz-adv-x="649" 
d="M109 387v125h432v-125h-432z" />
    <glyph glyph-name="registered" unicode="&#xae;" horiz-adv-x="1729" 
d="M92 748q0 106 27.5 205t78 184.5t121 156t156 121t184.5 78t205 27.5t205 -27.5t184.5 -78t156 -121t121 -156t78 -184.5t27.5 -205q0 -107 -27.5 -205.5t-78 -184.5t-121 -156.5t-156 -121t-184.5 -78t-205 -27.5q-107 0 -205.5 27.5t-184 78t-156 121t-121 156.5
t-78 185t-27.5 205zM180 745q0 -94 24.5 -181t69 -163t106.5 -139t138 -107.5t163.5 -69t182.5 -24.5t182.5 24.5t163.5 69t138 107.5t106.5 139t69 163t24.5 181t-24.5 181.5t-69 164t-106.5 139.5t-138 108t-163.5 69.5t-182.5 24.5t-182.5 -24.5t-163.5 -69.5t-138 -108
t-106.5 -139.5t-69 -164t-24.5 -181.5zM610 317v897h271q60 0 111 -18.5t88.5 -52.5t59 -81t21.5 -104q0 -60 -23 -107t-61.5 -79.5t-89 -49.5t-106.5 -17h-15l342 -388h-133l-360 416v-416h-105zM715 791h147q42 0 77.5 11t60.5 33t39 53.5t14 72.5q0 33 -13 61.5t-36 49
t-55.5 32.5t-71.5 12h-162v-325z" />
    <glyph glyph-name="macron" unicode="&#xaf;" horiz-adv-x="956" 
d="M193 999v103h569v-103h-569z" />
    <glyph glyph-name="macron" unicode="&#x304;" horiz-adv-x="956" 
d="M193 999v103h569v-103h-569z" />
    <glyph glyph-name="degree" unicode="&#xb0;" horiz-adv-x="823" 
d="M61 1169q0 73 27.5 137t75 111.5t111.5 75t137 27.5t136.5 -27.5t111 -75t75 -111.5t27.5 -137t-27.5 -136.5t-75 -111t-111 -75t-136.5 -27.5t-137 27.5t-111.5 75t-75 111t-27.5 136.5zM180 1169q0 -48 18 -90.5t49.5 -73.5t74 -49t90.5 -18t90.5 18t73.5 49t49 73.5
t18 90.5t-18 90.5t-49 74t-73.5 49.5t-90.5 18t-90.5 -18t-74 -49.5t-49.5 -74t-18 -90.5z" />
    <glyph glyph-name="plusminus" unicode="&#xb1;" horiz-adv-x="1536" 
d="M200 764v172h472v416h192v-416h476v-172h-476v-412h-192v412h-472zM204 24v192h1132v-192h-1132z" />
    <glyph glyph-name="uni00B2" unicode="&#xb2;" horiz-adv-x="877" 
d="M145 705l361 438q32 38 47.5 66t15.5 59t-11.5 55t-30.5 40.5t-42.5 25t-48.5 8.5q-60 0 -95.5 -40t-43.5 -108h-117q5 64 26.5 114t55.5 84t78.5 51.5t95.5 17.5t97.5 -17t82 -48.5t57 -77.5t21.5 -103q0 -53 -25 -101t-65 -98l-207 -248h308v-118h-560z" />
    <glyph glyph-name="uni00B3" unicode="&#xb3;" horiz-adv-x="893" 
d="M154 797l79 90q48 -53 99.5 -77t111.5 -24q38 0 68 11t51 30t32 45t11 56q0 68 -45.5 102.5t-120.5 34.5h-98v109h98q60 0 100 30.5t40 87.5q0 21 -8.5 40.5t-24 34t-39 23.5t-53.5 9q-57 0 -100.5 -24t-67.5 -70l-101 55q14 27 38 54.5t58 50t78 37t97 14.5
q64 0 110 -19t76 -50.5t44.5 -71t14.5 -81.5q0 -28 -6.5 -54.5t-19 -49t-32 -39t-44.5 -25.5q30 -7 54 -26t40.5 -46t25.5 -59t9 -65q0 -49 -16.5 -95.5t-51 -82.5t-88.5 -58t-129 -22q-91 0 -164.5 34t-125.5 91z" />
    <glyph glyph-name="acute" unicode="&#xb4;" horiz-adv-x="956" 
d="M317 999l177 283h143l-180 -283h-140z" />
    <glyph glyph-name="uni00B5" unicode="&#xb5;" horiz-adv-x="1408" 
d="M140 -280q0 80 4 174t12 206q8 100 12 156t4 72q4 20 4 28v820h192v-856q0 -92 82 -144t178 -52q132 0 230 66t150 190v796h192v-868l20 -308h-164l-36 176q-68 -108 -184 -162t-264 -54q-52 0 -128 26t-120 74q0 -88 28 -172t28 -152q0 -160 -128 -160q-56 0 -84 32
t-28 112z" />
    <glyph glyph-name="uni00B5" unicode="&#x3bc;" horiz-adv-x="1408" 
d="M140 -280q0 80 4 174t12 206q8 100 12 156t4 72q4 20 4 28v820h192v-856q0 -92 82 -144t178 -52q132 0 230 66t150 190v796h192v-868l20 -308h-164l-36 176q-68 -108 -184 -162t-264 -54q-52 0 -128 26t-120 74q0 -88 28 -172t28 -152q0 -160 -128 -160q-56 0 -84 32
t-28 112z" />
    <glyph glyph-name="paragraph" unicode="&#xb6;" horiz-adv-x="1358" 
d="M55 993q0 107 38 198.5t108 159t168 106t217 38.5h622v-1862h-135v1737h-172v-1737h-133v873h-211q-101 0 -192 39t-160 106t-109.5 155.5t-40.5 186.5zM201 1006q0 -82 29 -150.5t81 -118.5t124.5 -78t160.5 -28h172v739h-172q-89 0 -162 -27.5t-125 -76.5t-80 -115.5
t-28 -144.5z" />
    <glyph glyph-name="periodcentered" unicode="&#xb7;" horiz-adv-x="365" 
d="M109 639v197h147v-197h-147z" />
    <glyph glyph-name="periodcentered" unicode="&#x2219;" horiz-adv-x="365" 
d="M109 639v197h147v-197h-147z" />
    <glyph glyph-name="cedilla" unicode="&#xb8;" horiz-adv-x="956" 
d="M242 -301l47 57q26 -21 68.5 -34t80.5 -13q35 0 62.5 17t27.5 51q0 31 -25 48t-67 17q-43 0 -78 -14l-32 39l125 160h110l-92 -119q40 2 72.5 -5.5t56 -23.5t36.5 -39t13 -51q0 -42 -18 -71.5t-48 -48t-68 -27.5t-77 -9q-57 0 -108 20t-86 46z" />
    <glyph glyph-name="uni00B9" unicode="&#xb9;" horiz-adv-x="649" 
d="M150 1245v121q58 8 101.5 40.5t67.5 88.5h93v-809h-121v617q-20 -23 -60 -38.5t-81 -19.5z" />
    <glyph glyph-name="ordmasculine" unicode="&#xba;" horiz-adv-x="975" 
d="M129 1163q0 75 26 140t73 114t111.5 77t141.5 28t142.5 -27.5t113 -75.5t74.5 -112.5t27 -139.5q0 -78 -27 -145t-74.5 -116t-112.5 -77t-141 -28q-75 0 -139.5 26.5t-112.5 74t-75 114t-27 147.5zM137 590v98h692v-98h-692zM246 1163q0 -57 17 -104t48 -81.5t74.5 -53.5
t95.5 -19q56 0 100.5 20t75.5 54.5t47.5 82t16.5 101.5q0 56 -17.5 102.5t-49 79.5t-76 51.5t-97.5 18.5q-52 0 -95.5 -19t-74.5 -53t-48 -80t-17 -100z" />
    <glyph glyph-name="guillemotright" unicode="&#xbb;" horiz-adv-x="721" 
d="M74 115v145l176 172l-176 172v148l303 -285v-70zM369 115v145l176 172l-176 172v148l303 -285v-70z" />
    <glyph glyph-name="onequarter" unicode="&#xbc;" horiz-adv-x="1700" 
d="M150 1245v121q58 8 101.5 40.5t67.5 88.5h93v-809h-121v617q-20 -23 -60 -38.5t-81 -19.5zM236 0l1021 1495h142l-1022 -1495h-141zM956 190v84l371 527h90v-496h113v-115h-113v-190h-121v190h-340zM1116 305h180v258z" />
    <glyph glyph-name="onehalf" unicode="&#xbd;" horiz-adv-x="1769" 
d="M150 1245v121q58 8 101.5 40.5t67.5 88.5h93v-809h-121v617q-20 -23 -60 -38.5t-81 -19.5zM236 0l1021 1495h142l-1022 -1495h-141zM1042 0l361 438q32 38 47.5 66t15.5 59t-11.5 55t-30.5 40.5t-42.5 25t-48.5 8.5q-60 0 -95.5 -39.5t-43.5 -107.5h-117q5 64 26.5 114
t55.5 83.5t78.5 51t95.5 17.5t97.5 -17t82 -48.5t57 -77t21.5 -103.5q0 -52 -25 -100.5t-65 -97.5l-207 -248h308v-119h-560z" />
    <glyph glyph-name="threequarters" unicode="&#xbe;" horiz-adv-x="1802" 
d="M154 797l79 90q48 -53 99.5 -77t111.5 -24q38 0 68 11t51 30t32 45t11 56q0 68 -45.5 102.5t-120.5 34.5h-98v109h98q60 0 100 30.5t40 87.5q0 21 -8.5 40.5t-24 34t-39 23.5t-53.5 9q-57 0 -100.5 -24t-67.5 -70l-101 55q14 27 38 54.5t58 50t78 37t97 14.5
q64 0 110 -19t76 -50.5t44.5 -71t14.5 -81.5q0 -28 -6.5 -54.5t-19 -49t-32 -39t-44.5 -25.5q30 -7 54 -26t40.5 -46t25.5 -59t9 -65q0 -49 -16.5 -95.5t-51 -82.5t-88.5 -58t-129 -22q-91 0 -164.5 34t-125.5 91zM401 0l1022 1495h142l-1022 -1495h-142zM1079 190v84
l371 527h90v-496h113v-115h-113v-190h-121v190h-340zM1239 305h180v258z" />
    <glyph glyph-name="questiondown" unicode="&#xbf;" horiz-adv-x="899" 
d="M78 352q0 65 17 121t44.5 106.5t61.5 97.5l69 95q30 42 57.5 86.5t48.5 92t33.5 97.5t12.5 103v49h141v-45q0 -72 -16.5 -135t-43.5 -119t-60.5 -106.5l-67.5 -98.5l-57.5 -82t-48.5 -80t-33.5 -81.5t-12.5 -87.5q0 -54 18.5 -102t51.5 -83.5t79 -56.5t101 -21
q90 0 159 44.5t116 119.5l100 -90q-68 -102 -162 -151.5t-213 -49.5q-90 0 -163 28.5t-124.5 79t-79.5 119.5t-28 150zM420 1298v197h145v-197h-145z" />
    <glyph glyph-name="Agrave" unicode="&#xc0;" horiz-adv-x="1368" 
d="M57 0l564 1509h86l565 -1509h-158l-192 532h-521l-192 -532h-152zM451 664h421l-210 593zM407 1898h144l176 -283h-139z" />
    <glyph glyph-name="Aacute" unicode="&#xc1;" horiz-adv-x="1368" 
d="M57 0l564 1509h86l565 -1509h-158l-192 532h-521l-192 -532h-152zM451 664h421l-210 593zM587 1615l177 283h143l-180 -283h-140z" />
    <glyph glyph-name="Acircumflex" unicode="&#xc2;" horiz-adv-x="1368" 
d="M57 0l564 1509h86l565 -1509h-158l-192 532h-521l-192 -532h-152zM451 664h421l-210 593zM393 1595l209 275h117l208 -275h-143l-125 172l-125 -172h-141z" />
    <glyph glyph-name="Atilde" unicode="&#xc3;" horiz-adv-x="1368" 
d="M57 0l564 1509h86l565 -1509h-158l-192 532h-521l-192 -532h-152zM451 664h421l-210 593zM386 1615q1 42 9.5 78.5t27 63.5t49 42t77.5 15q34 0 70 -16t63 -33q29 -17 55.5 -30t49.5 -13q28 0 40.5 22.5t14.5 65.5h113q-1 -42 -9 -78.5t-26.5 -63.5t-49.5 -42t-77 -15
q-35 0 -71.5 16.5t-65.5 35.5q-29 17 -53.5 28.5t-47.5 11.5q-27 0 -40 -23t-15 -65h-114z" />
    <glyph glyph-name="Adieresis" unicode="&#xc4;" horiz-adv-x="1368" 
d="M57 0l564 1509h86l565 -1509h-158l-192 532h-521l-192 -532h-152zM231 1298v197h136v-197h-136zM451 664h421l-210 593zM961 1298v197h135v-197h-135z" />
    <glyph glyph-name="Aring" unicode="&#xc5;" horiz-adv-x="1368" 
d="M57 0l535 1434q-62 21 -101.5 74t-39.5 124q0 44 16.5 82.5t45.5 67.5t67.5 46t83.5 17q43 0 82 -17t68 -46t46 -67.5t17 -82.5q0 -35 -10.5 -66t-29.5 -57t-45 -45.5t-57 -29.5l537 -1434h-158l-192 532h-521l-192 -532h-152zM451 664h421l-210 593zM547 1632
q0 -24 9 -45.5t24.5 -37t37 -24.5t46.5 -9q24 0 45.5 9t37 24.5t24.5 37t9 45.5q0 25 -9 46t-24.5 37t-37 25t-45.5 9q-25 0 -46.5 -9t-37 -25t-24.5 -37t-9 -46z" />
    <glyph glyph-name="AE" unicode="&#xc6;" horiz-adv-x="1911" 
d="M16 0l922 1495h829v-131h-647v-537h606v-131h-606v-565h686v-131h-829v487h-504l-301 -487h-156zM557 618h420v707z" />
    <glyph glyph-name="Ccedilla" unicode="&#xc7;" horiz-adv-x="1477" 
d="M92 748q0 104 25 202t71.5 183.5t112.5 156.5t147 122.5t176 79.5t199 28q184 0 318.5 -63t224.5 -173l-104 -92q-82 90 -190.5 140t-248.5 50q-83 0 -158 -22.5t-139.5 -63t-117 -98t-89.5 -127t-57 -150t-20 -167.5q0 -146 48.5 -264.5t129 -202t185.5 -129t218 -45.5
q144 0 258 56t211 165l103 -86q-39 -50 -91.5 -96.5t-119 -84t-146.5 -61.5t-172 -29l-53 -69q40 2 73 -5.5t56 -23.5t36 -39t13 -51q0 -42 -18 -71.5t-48 -48t-68 -27.5t-77 -9q-27 0 -54 5.5t-52 14.5t-46.5 21t-39.5 25l45 57q26 -21 68.5 -34t80.5 -13q37 0 63.5 17
t26.5 51q0 31 -24 48t-68 17q-43 0 -78 -14l-32 39l88 110q-90 8 -174.5 38.5t-158.5 80.5t-135.5 117.5t-105 150.5t-68 179.5t-24.5 204.5z" />
    <glyph glyph-name="Egrave" unicode="&#xc8;" horiz-adv-x="1094" 
d="M160 0v1495h790v-131h-649v-537h608v-131h-608v-565h688v-131h-829zM319 1898h144l176 -283h-139z" />
    <glyph glyph-name="Eacute" unicode="&#xc9;" horiz-adv-x="1094" 
d="M160 0v1495h790v-131h-649v-537h608v-131h-608v-565h688v-131h-829zM442 1615l177 283h143l-180 -283h-140z" />
    <glyph glyph-name="Ecircumflex" unicode="&#xca;" horiz-adv-x="1094" 
d="M160 0v1495h790v-131h-649v-537h608v-131h-608v-565h688v-131h-829zM283 1615l209 275h117l208 -275h-143l-125 172l-125 -172h-141z" />
    <glyph glyph-name="Edieresis" unicode="&#xcb;" horiz-adv-x="1094" 
d="M160 0v1495h790v-131h-649v-537h608v-131h-608v-565h688v-131h-829zM324 1615v197h135v-197h-135zM645 1615v197h136v-197h-136z" />
    <glyph glyph-name="Igrave" unicode="&#xcc;" horiz-adv-x="461" 
d="M160 0v1495h141v-1495h-141zM-18 1898h144l176 -283h-139z" />
    <glyph glyph-name="Iacute" unicode="&#xcd;" horiz-adv-x="461" 
d="M160 0v1495h141v-1495h-141zM162 1617l177 283h143l-180 -283h-140z" />
    <glyph glyph-name="Icircumflex" unicode="&#xce;" horiz-adv-x="461" 
d="M160 0v1495h141v-1495h-141zM-36 1609l209 275h117l208 -275h-143l-125 172l-125 -172h-141z" />
    <glyph glyph-name="Idieresis" unicode="&#xcf;" horiz-adv-x="461" 
d="M160 0v1495h141v-1495h-141zM3 1615v197h135v-197h-135zM324 1615v197h136v-197h-136z" />
    <glyph glyph-name="Eth" unicode="&#xd0;" horiz-adv-x="1425" 
d="M76 692v131h131v672h340q174 0 318.5 -52.5t248.5 -149.5t161.5 -233t57.5 -302q0 -169 -58.5 -308.5t-164 -239.5t-251.5 -155t-320 -55h-332v692h-131zM350 127h191q151 0 270.5 49t203 134t127.5 200t44 246q0 136 -46.5 248.5t-130 193.5t-198.5 125.5t-252 44.5
h-209v-545h344v-131h-344v-565z" />
    <glyph glyph-name="Ntilde" unicode="&#xd1;" horiz-adv-x="1489" 
d="M160 0v1495h141l885 -1243v1243h143v-1495h-133l-895 1253v-1253h-141zM480 1579q1 42 9.5 78.5t27 63.5t49 42t77.5 15q34 0 70 -16t63 -33q29 -17 55.5 -30t49.5 -13q28 0 40.5 22.5t14.5 65.5h113q-1 -42 -9 -78.5t-26.5 -63.5t-49.5 -42t-77 -15q-35 0 -71.5 16.5
t-65.5 35.5q-29 17 -53.5 28.5t-47.5 11.5q-27 0 -40 -23t-15 -65h-114z" />
    <glyph glyph-name="Ograve" unicode="&#xd2;" horiz-adv-x="1686" 
d="M92 750q0 109 26 208.5t74 185t115.5 155t151 118.5t180 76t201.5 27q109 0 207 -27t182 -76.5t151 -119t114.5 -155t73 -185t25.5 -207.5q0 -109 -26.5 -209t-75 -186t-116.5 -156t-151 -120t-179.5 -77t-200.5 -27q-105 0 -201.5 26.5t-180 76t-152 119t-117 155.5
t-75 186.5t-26.5 211.5zM242 750q0 -137 47.5 -253.5t129 -202t191 -133.5t234.5 -48q124 0 233.5 47t191 132t128.5 202t47 258q0 134 -45 249.5t-125.5 200t-191.5 132.5t-242 48q-129 0 -238.5 -48t-189.5 -133t-125 -200.5t-45 -250.5zM589 1898h144l176 -283h-139z" />
    <glyph glyph-name="Oacute" unicode="&#xd3;" horiz-adv-x="1686" 
d="M92 750q0 109 26 208.5t74 185t115.5 155t151 118.5t180 76t201.5 27q109 0 207 -27t182 -76.5t151 -119t114.5 -155t73 -185t25.5 -207.5q0 -109 -26.5 -209t-75 -186t-116.5 -156t-151 -120t-179.5 -77t-200.5 -27q-105 0 -201.5 26.5t-180 76t-152 119t-117 155.5
t-75 186.5t-26.5 211.5zM242 750q0 -137 47.5 -253.5t129 -202t191 -133.5t234.5 -48q124 0 233.5 47t191 132t128.5 202t47 258q0 134 -45 249.5t-125.5 200t-191.5 132.5t-242 48q-129 0 -238.5 -48t-189.5 -133t-125 -200.5t-45 -250.5zM749 1615l177 283h143l-180 -283
h-140z" />
    <glyph glyph-name="Ocircumflex" unicode="&#xd4;" horiz-adv-x="1686" 
d="M92 750q0 109 26 208.5t74 185t115.5 155t151 118.5t180 76t201.5 27q109 0 207 -27t182 -76.5t151 -119t114.5 -155t73 -185t25.5 -207.5q0 -109 -26.5 -209t-75 -186t-116.5 -156t-151 -120t-179.5 -77t-200.5 -27q-105 0 -201.5 26.5t-180 76t-152 119t-117 155.5
t-75 186.5t-26.5 211.5zM242 750q0 -137 47.5 -253.5t129 -202t191 -133.5t234.5 -48q124 0 233.5 47t191 132t128.5 202t47 258q0 134 -45 249.5t-125.5 200t-191.5 132.5t-242 48q-129 0 -238.5 -48t-189.5 -133t-125 -200.5t-45 -250.5zM565 1615l209 275h117l208 -275
h-143l-125 172l-125 -172h-141z" />
    <glyph glyph-name="Otilde" unicode="&#xd5;" horiz-adv-x="1686" 
d="M92 750q0 109 26 208.5t74 185t115.5 155t151 118.5t180 76t201.5 27q109 0 207 -27t182 -76.5t151 -119t114.5 -155t73 -185t25.5 -207.5q0 -109 -26.5 -209t-75 -186t-116.5 -156t-151 -120t-179.5 -77t-200.5 -27q-105 0 -201.5 26.5t-180 76t-152 119t-117 155.5
t-75 186.5t-26.5 211.5zM242 750q0 -137 47.5 -253.5t129 -202t191 -133.5t234.5 -48q124 0 233.5 47t191 132t128.5 202t47 258q0 134 -45 249.5t-125.5 200t-191.5 132.5t-242 48q-129 0 -238.5 -48t-189.5 -133t-125 -200.5t-45 -250.5zM549 1632q1 42 9.5 78.5t27 63.5
t49 42t77.5 15q34 0 70 -16t63 -33q29 -17 55.5 -30t49.5 -13q28 0 40.5 22.5t14.5 65.5h113q-1 -42 -9 -78.5t-26.5 -63.5t-49.5 -42t-77 -15q-35 0 -71.5 16.5t-65.5 35.5q-29 17 -53.5 28.5t-47.5 11.5q-27 0 -40 -23t-15 -65h-114z" />
    <glyph glyph-name="Odieresis" unicode="&#xd6;" horiz-adv-x="1686" 
d="M66 1298v197h137v-197h-137zM92 750q0 109 26 208.5t74 185t115.5 155t151 118.5t180 76t201.5 27q109 0 207 -27t182 -76.5t151 -119t114.5 -155t73 -185t25.5 -207.5q0 -109 -26.5 -209t-75 -186t-116.5 -156t-151 -120t-179.5 -77t-200.5 -27q-105 0 -201.5 26.5
t-180 76t-152 119t-117 155.5t-75 186.5t-26.5 211.5zM242 750q0 -137 47.5 -253.5t129 -202t191 -133.5t234.5 -48q124 0 233.5 47t191 132t128.5 202t47 258q0 134 -45 249.5t-125.5 200t-191.5 132.5t-242 48q-129 0 -238.5 -48t-189.5 -133t-125 -200.5t-45 -250.5z
M1483 1298v197h135v-197h-135z" />
    <glyph glyph-name="multiply" unicode="&#xd7;" horiz-adv-x="989" 
d="M111 385l288 289l-288 289l94 94l289 -289l288 289l95 -94l-289 -289l289 -289l-95 -94l-288 289l-289 -289z" />
    <glyph glyph-name="Oslash" unicode="&#xd8;" horiz-adv-x="1686" 
d="M92 750q0 109 26 208.5t74 185t115.5 155t151 118.5t180 76t201.5 27q142 0 264 -45t219 -125l158 170l82 -72l-164 -174q93 -102 143.5 -235.5t50.5 -288.5q0 -109 -26.5 -209t-75 -186t-116.5 -156t-151 -120t-179.5 -77t-200.5 -27q-143 0 -268 47t-224 134l-157 -170
l-80 73l161 174q-86 103 -135 234t-49 283zM242 750q0 -121 36 -224t101 -184l844 905q-76 65 -172.5 100t-210.5 35q-129 0 -238.5 -48t-189.5 -133t-125 -200.5t-45 -250.5zM453 262q80 -71 179.5 -110t211.5 -39q124 0 233.5 47t191 132t128.5 202t47 258
q0 123 -37.5 229.5t-106.5 189.5z" />
    <glyph glyph-name="Ugrave" unicode="&#xd9;" horiz-adv-x="1411" 
d="M150 553v942h143v-942q0 -105 33 -187.5t89 -139.5t131 -87t159 -30q83 0 158 30t132 87t91 139.5t34 187.5v942h142v-942q0 -131 -43 -237.5t-118 -182t-177 -117t-219 -41.5q-119 0 -221 40.5t-176 115.5t-116 182t-42 240zM483 1878h144l176 -283h-139z" />
    <glyph glyph-name="Uacute" unicode="&#xda;" horiz-adv-x="1411" 
d="M150 553v942h143v-942q0 -105 33 -187.5t89 -139.5t131 -87t159 -30q83 0 158 30t132 87t91 139.5t34 187.5v942h142v-942q0 -131 -43 -237.5t-118 -182t-177 -117t-219 -41.5q-119 0 -221 40.5t-176 115.5t-116 182t-42 240zM587 1595l177 283h143l-180 -283h-140z" />
    <glyph glyph-name="Ucircumflex" unicode="&#xdb;" horiz-adv-x="1411" 
d="M150 553v942h143v-942q0 -105 33 -187.5t89 -139.5t131 -87t159 -30q83 0 158 30t132 87t91 139.5t34 187.5v942h142v-942q0 -131 -43 -237.5t-118 -182t-177 -117t-219 -41.5q-119 0 -221 40.5t-176 115.5t-116 182t-42 240zM440 1595l209 275h117l208 -275h-143
l-125 172l-125 -172h-141z" />
    <glyph glyph-name="Udieresis" unicode="&#xdc;" horiz-adv-x="1411" 
d="M150 553v942h143v-942q0 -105 33 -187.5t89 -139.5t131 -87t159 -30q83 0 158 30t132 87t91 139.5t34 187.5v942h142v-942q0 -131 -43 -237.5t-118 -182t-177 -117t-219 -41.5q-119 0 -221 40.5t-176 115.5t-116 182t-42 240zM479 1298v197h135v-197h-135zM797 1298v197
h135v-197h-135z" />
    <glyph glyph-name="Yacute" unicode="&#xdd;" horiz-adv-x="1303" 
d="M49 1495h166l438 -651l437 651h161l-532 -790v-705h-144v707zM559 1595l177 283h143l-180 -283h-140z" />
    <glyph glyph-name="Thorn" unicode="&#xde;" horiz-adv-x="1106" 
d="M160 0v1495h141v-287h240q120 0 212 -32.5t154.5 -90t94.5 -136.5t32 -171q0 -93 -34 -173.5t-96 -140.5t-149.5 -94t-195.5 -34h-258v-336h-141zM301 467h244q85 0 149 23.5t107 65t64.5 99t21.5 125.5q0 140 -91.5 218.5t-277.5 78.5h-217v-610z" />
    <glyph glyph-name="germandbls" unicode="&#xdf;" horiz-adv-x="940" 
d="M129 0v1153q0 83 21 150.5t63 115.5t104.5 74.5t145.5 26.5q75 0 138 -21.5t109.5 -63.5t72.5 -103.5t26 -141.5q0 -60 -17 -113t-48 -96t-74.5 -75t-96.5 -50q57 -24 111 -73t95.5 -115t67 -146t25.5 -166q0 -78 -23 -147.5t-66 -121.5t-104.5 -82t-137.5 -30
q-54 0 -95.5 10t-70.5 27l20 117q26 -15 59 -23t78 -8t82 18t63.5 51t41 79.5t14.5 103.5q0 96 -30.5 176.5t-79.5 140.5t-109.5 98t-120.5 50v96h8q48 0 97 18t88.5 53t64.5 86t25 116q0 103 -56.5 162t-158.5 59q-91 0 -145 -64t-54 -180v-1161h-133z" />
    <glyph glyph-name="agrave" unicode="&#xe0;" horiz-adv-x="905" 
d="M68 246q0 73 31.5 129t90 94t140 57t182.5 19h150v37q0 49 -15 80.5t-42 49.5t-65 24.5t-83 6.5q-78 0 -140 -12.5t-114 -40.5l-49 103q28 17 62.5 29.5t72.5 21t78 12.5t79 4q174 0 260.5 -64t86.5 -188v-608h-134v80q-55 -47 -126.5 -76t-159.5 -29q-70 0 -126.5 19.5
t-96 55t-61 85.5t-21.5 111zM205 246q0 -38 16 -66t42.5 -47t61 -28t72.5 -9q79 0 143 27.5t119 71.5v237h-112q-168 0 -255 -43t-87 -143zM228 1282h144l176 -283h-139z" />
    <glyph glyph-name="aacute" unicode="&#xe1;" horiz-adv-x="905" 
d="M68 246q0 73 31.5 129t90 94t140 57t182.5 19h150v37q0 49 -15 80.5t-42 49.5t-65 24.5t-83 6.5q-78 0 -140 -12.5t-114 -40.5l-49 103q28 17 62.5 29.5t72.5 21t78 12.5t79 4q174 0 260.5 -64t86.5 -188v-608h-134v80q-55 -47 -126.5 -76t-159.5 -29q-70 0 -126.5 19.5
t-96 55t-61 85.5t-21.5 111zM205 246q0 -38 16 -66t42.5 -47t61 -28t72.5 -9q79 0 143 27.5t119 71.5v237h-112q-168 0 -255 -43t-87 -143zM350 999l177 283h143l-180 -283h-140z" />
    <glyph glyph-name="acircumflex" unicode="&#xe2;" horiz-adv-x="905" 
d="M68 246q0 73 31.5 129t90 94t140 57t182.5 19h150v37q0 49 -15 80.5t-42 49.5t-65 24.5t-83 6.5q-78 0 -140 -12.5t-114 -40.5l-49 103q28 17 62.5 29.5t72.5 21t78 12.5t79 4q174 0 260.5 -64t86.5 -188v-608h-134v80q-55 -47 -126.5 -76t-159.5 -29q-70 0 -126.5 19.5
t-96 55t-61 85.5t-21.5 111zM205 246q0 -38 16 -66t42.5 -47t61 -28t72.5 -9q79 0 143 27.5t119 71.5v237h-112q-168 0 -255 -43t-87 -143zM187 999l209 275h117l208 -275h-143l-125 172l-125 -172h-141z" />
    <glyph glyph-name="atilde" unicode="&#xe3;" horiz-adv-x="905" 
d="M68 246q0 73 31.5 129t90 94t140 57t182.5 19h150v37q0 49 -15 80.5t-42 49.5t-65 24.5t-83 6.5q-78 0 -140 -12.5t-114 -40.5l-49 103q28 17 62.5 29.5t72.5 21t78 12.5t79 4q174 0 260.5 -64t86.5 -188v-608h-134v80q-55 -47 -126.5 -76t-159.5 -29q-70 0 -126.5 19.5
t-96 55t-61 85.5t-21.5 111zM205 246q0 -38 16 -66t42.5 -47t61 -28t72.5 -9q79 0 143 27.5t119 71.5v237h-112q-168 0 -255 -43t-87 -143zM178 999q1 42 9.5 78.5t27 63.5t49 42t77.5 15q34 0 70 -16t63 -33q29 -17 55.5 -30t49.5 -13q28 0 40.5 22.5t14.5 65.5h113
q-1 -42 -9 -78.5t-26.5 -63.5t-49.5 -42t-77 -15q-35 0 -71.5 16.5t-65.5 35.5q-29 17 -53.5 28.5t-47.5 11.5q-27 0 -40 -23t-15 -65h-114z" />
    <glyph glyph-name="adieresis" unicode="&#xe4;" horiz-adv-x="905" 
d="M68 246q0 73 31.5 129t90 94t140 57t182.5 19h150v37q0 49 -15 80.5t-42 49.5t-65 24.5t-83 6.5q-78 0 -140 -12.5t-114 -40.5l-49 103q28 17 62.5 29.5t72.5 21t78 12.5t79 4q174 0 260.5 -64t86.5 -188v-608h-134v80q-55 -47 -126.5 -76t-159.5 -29q-70 0 -126.5 19.5
t-96 55t-61 85.5t-21.5 111zM205 246q0 -38 16 -66t42.5 -47t61 -28t72.5 -9q79 0 143 27.5t119 71.5v237h-112q-168 0 -255 -43t-87 -143zM226 999v197h135v-197h-135zM547 999v197h136v-197h-136z" />
    <glyph glyph-name="aring" unicode="&#xe5;" horiz-adv-x="905" 
d="M68 246q0 73 31.5 129t90 94t140 57t182.5 19h150v37q0 49 -15 80.5t-42 49.5t-65 24.5t-83 6.5q-78 0 -140 -12.5t-114 -40.5l-49 103q28 17 62.5 29.5t72.5 21t78 12.5t79 4q174 0 260.5 -64t86.5 -188v-608h-134v80q-55 -47 -126.5 -76t-159.5 -29q-70 0 -126.5 19.5
t-96 55t-61 85.5t-21.5 111zM205 246q0 -38 16 -66t42.5 -47t61 -28t72.5 -9q79 0 143 27.5t119 71.5v237h-112q-168 0 -255 -43t-87 -143zM249 1198q0 44 16.5 82.5t45 67t67 45t82.5 16.5q45 0 83.5 -16.5t67.5 -45t45.5 -67t16.5 -82.5q0 -45 -16.5 -83.5t-45.5 -67.5
t-67.5 -45.5t-83.5 -16.5q-44 0 -82.5 16.5t-67 45.5t-45 67.5t-16.5 83.5zM341 1198q0 -26 9.5 -48t25.5 -38t38 -25.5t46 -9.5q25 0 47.5 9.5t38.5 25.5t25.5 38t9.5 48q0 25 -9.5 46.5t-25.5 37.5t-38.5 25.5t-47.5 9.5q-24 0 -46 -9.5t-38 -25.5t-25.5 -37.5t-9.5 -46.5
z" />
    <glyph glyph-name="ae" unicode="&#xe6;" horiz-adv-x="1524" 
d="M68 246q0 70 30 122t85.5 85.5t134 50t174.5 16.5h174v39q0 55 -15.5 91t-43.5 56.5t-66.5 28.5t-83.5 8q-78 0 -140 -12.5t-114 -40.5l-49 103q28 17 62.5 29.5t72.5 21t78 12.5t79 4q134 0 211.5 -40t102.5 -115q48 71 129.5 113t183.5 42q96 0 168 -36t120.5 -97.5
t73.5 -142t27 -170.5h-667q1 -66 21 -124t58 -101t92.5 -68t123.5 -25q48 0 86 8t70 22.5t60 36t56 48.5l84 -82q-30 -30 -66 -58t-80 -49t-97.5 -34t-117.5 -13q-117 0 -202.5 50t-134.5 129q-65 -82 -160 -130.5t-215 -48.5q-70 0 -126.5 19.5t-96 55t-61 85.5t-21.5 111z
M203 246q0 -38 15 -66.5t40.5 -48t59 -29.5t71.5 -10q48 0 95.5 15t88 42.5t70 67t41.5 88.5q-18 49 -18 109h-140q-160 0 -241.5 -38t-81.5 -130zM801 520h510q-7 42 -25 81.5t-48 70t-72.5 49t-98.5 18.5q-57 0 -102.5 -17t-79 -46.5t-55 -69.5t-29.5 -86z" />
    <glyph glyph-name="ccedilla" unicode="&#xe7;" horiz-adv-x="905" 
d="M70 420q0 90 31 170t86 140t130.5 95t165.5 35q70 0 126.5 -16.5t100.5 -42t76.5 -57t55.5 -60.5l-101 -78q-21 27 -46 50.5t-55.5 41t-67.5 27.5t-80 10q-65 0 -117.5 -25.5t-90 -68.5t-57.5 -98.5t-20 -116.5q0 -71 21 -131.5t58.5 -104t89.5 -68t113 -24.5
q89 0 154.5 41.5t118.5 112.5l96 -72q-26 -38 -59.5 -72t-73.5 -61t-85.5 -45.5t-96.5 -24.5l-54 -69q39 2 72 -5.5t56 -23.5t36 -39t13 -51q0 -42 -18.5 -71.5t-48 -48t-67.5 -27.5t-77 -9q-28 0 -55 5.5t-51.5 14.5t-46.5 21t-40 25l45 57q13 -11 31 -19.5t38 -14.5
t41 -9.5t40 -3.5q37 0 63.5 17t26.5 51q0 31 -24.5 48t-67.5 17q-44 0 -78 -14l-33 39l88 113q-84 10 -151 48t-114 96.5t-72 134t-25 161.5z" />
    <glyph glyph-name="egrave" unicode="&#xe8;" horiz-adv-x="952" 
d="M70 428q0 86 29 164t83 137.5t131 95t174 35.5q98 0 172.5 -36t125 -97.5t76.5 -142t28 -170.5h-684q1 -67 22 -124.5t59 -100t92.5 -67t123.5 -24.5q47 0 86.5 8t74 23t65 36.5t58.5 47.5l86 -84q-29 -30 -66 -58t-83 -49t-102 -34t-123 -13q-100 0 -179.5 34.5
t-134.5 95t-84.5 143.5t-29.5 180zM211 520h528q-8 42 -28 81.5t-52.5 70t-77 49t-100.5 18.5q-58 0 -104.5 -17t-80.5 -46.5t-55.5 -69.5t-29.5 -86zM238 1282h144l176 -283h-139z" />
    <glyph glyph-name="eacute" unicode="&#xe9;" horiz-adv-x="952" 
d="M70 428q0 86 29 164t83 137.5t131 95t174 35.5q98 0 172.5 -36t125 -97.5t76.5 -142t28 -170.5h-684q1 -67 22 -124.5t59 -100t92.5 -67t123.5 -24.5q47 0 86.5 8t74 23t65 36.5t58.5 47.5l86 -84q-29 -30 -66 -58t-83 -49t-102 -34t-123 -13q-100 0 -179.5 34.5
t-134.5 95t-84.5 143.5t-29.5 180zM211 520h528q-8 42 -28 81.5t-52.5 70t-77 49t-100.5 18.5q-58 0 -104.5 -17t-80.5 -46.5t-55.5 -69.5t-29.5 -86zM385 999l177 283h143l-180 -283h-140z" />
    <glyph glyph-name="ecircumflex" unicode="&#xea;" horiz-adv-x="952" 
d="M70 428q0 86 29 164t83 137.5t131 95t174 35.5q98 0 172.5 -36t125 -97.5t76.5 -142t28 -170.5h-684q1 -67 22 -124.5t59 -100t92.5 -67t123.5 -24.5q47 0 86.5 8t74 23t65 36.5t58.5 47.5l86 -84q-29 -30 -66 -58t-83 -49t-102 -34t-123 -13q-100 0 -179.5 34.5
t-134.5 95t-84.5 143.5t-29.5 180zM211 520h528q-8 42 -28 81.5t-52.5 70t-77 49t-100.5 18.5q-58 0 -104.5 -17t-80.5 -46.5t-55.5 -69.5t-29.5 -86zM213 990l209 275h117l208 -275h-143l-125 172l-125 -172h-141z" />
    <glyph glyph-name="edieresis" unicode="&#xeb;" horiz-adv-x="952" 
d="M70 428q0 86 29 164t83 137.5t131 95t174 35.5q98 0 172.5 -36t125 -97.5t76.5 -142t28 -170.5h-684q1 -67 22 -124.5t59 -100t92.5 -67t123.5 -24.5q47 0 86.5 8t74 23t65 36.5t58.5 47.5l86 -84q-29 -30 -66 -58t-83 -49t-102 -34t-123 -13q-100 0 -179.5 34.5
t-134.5 95t-84.5 143.5t-29.5 180zM211 520h528q-8 42 -28 81.5t-52.5 70t-77 49t-100.5 18.5q-58 0 -104.5 -17t-80.5 -46.5t-55.5 -69.5t-29.5 -86zM250 999v197h135v-197h-135zM571 999v197h136v-197h-136z" />
    <glyph glyph-name="igrave" unicode="&#xec;" horiz-adv-x="391" 
d="M129 0v836h133v-836h-133zM-55 1282h144l176 -283h-139z" />
    <glyph glyph-name="iacute" unicode="&#xed;" horiz-adv-x="391" 
d="M129 0v836h133v-836h-133zM125 999l177 283h143l-180 -283h-140z" />
    <glyph glyph-name="icircumflex" unicode="&#xee;" horiz-adv-x="391" 
d="M129 0v836h133v-836h-133zM-73 988l209 275h117l208 -275h-143l-125 172l-125 -172h-141z" />
    <glyph glyph-name="idieresis" unicode="&#xef;" horiz-adv-x="391" 
d="M129 0v836h133v-836h-133zM-32 999v197h135v-197h-135zM289 999v197h136v-197h-136z" />
    <glyph glyph-name="eth" unicode="&#xf0;" horiz-adv-x="1022" 
d="M70 432q0 86 33.5 164t92 136.5t138.5 93t174 34.5q83 0 153 -30.5t119 -90.5q-8 42 -24.5 94.5t-42.5 111t-61.5 120t-80.5 123.5l-247 -101l-50 99l230 92q-44 51 -91.5 99t-101.5 91l66 66q66 -46 124 -99.5t109 -113.5l150 61l47 -98l-125 -51q67 -92 117.5 -191.5
t84.5 -202t51 -205.5t17 -200q0 -79 -26.5 -160.5t-81.5 -148t-139.5 -108.5t-200.5 -42q-92 0 -171 32.5t-137.5 92t-92 144t-33.5 188.5zM207 420q0 -71 22 -130t62 -102t95 -66.5t120 -23.5q70 0 127 24.5t97 67.5t61.5 102t21.5 128q0 70 -23 128.5t-63.5 99.5t-96.5 64
t-122 23t-121.5 -24t-95 -66t-62 -100t-22.5 -125z" />
    <glyph glyph-name="ntilde" unicode="&#xf1;" horiz-adv-x="944" 
d="M129 0v836h133v-121q19 34 46.5 60.5t61.5 45.5t72.5 29t79.5 10q71 0 128 -22t97.5 -61.5t62 -96t21.5 -125.5v-555h-133v532q0 45 -12.5 82.5t-37 64.5t-61.5 42.5t-85 15.5q-59 0 -103.5 -23t-75 -60t-46 -82t-15.5 -89v-483h-133zM192 999q1 42 9.5 78.5t27 63.5
t49 42t77.5 15q34 0 70 -16t63 -33q29 -17 55.5 -30t49.5 -13q28 0 40.5 22.5t14.5 65.5h113q-1 -42 -9 -78.5t-26.5 -63.5t-49.5 -42t-77 -15q-35 0 -71.5 16.5t-65.5 35.5q-29 17 -53.5 28.5t-47.5 11.5q-27 0 -40 -23t-15 -65h-114z" />
    <glyph glyph-name="ograve" unicode="&#xf2;" horiz-adv-x="1010" 
d="M70 420q0 92 32 172.5t89.5 140t136.5 93.5t174 34q94 0 174.5 -33.5t139 -92t91.5 -138.5t33 -172q0 -96 -33.5 -178t-92 -142.5t-138 -94.5t-172.5 -34q-92 0 -171.5 32.5t-138 91t-91.5 140.5t-33 181zM207 420q0 -71 21.5 -130t60.5 -102t93.5 -66.5t119.5 -23.5
q70 0 125.5 24.5t94.5 67.5t60 102t21 128q0 70 -22.5 128.5t-62 99.5t-95 64t-121.5 23q-65 0 -119.5 -24t-93.5 -66t-60.5 -100t-21.5 -125zM254 1282h144l176 -283h-139z" />
    <glyph glyph-name="oacute" unicode="&#xf3;" horiz-adv-x="1010" 
d="M70 420q0 92 32 172.5t89.5 140t136.5 93.5t174 34q94 0 174.5 -33.5t139 -92t91.5 -138.5t33 -172q0 -96 -33.5 -178t-92 -142.5t-138 -94.5t-172.5 -34q-92 0 -171.5 32.5t-138 91t-91.5 140.5t-33 181zM207 420q0 -71 21.5 -130t60.5 -102t93.5 -66.5t119.5 -23.5
q70 0 125.5 24.5t94.5 67.5t60 102t21 128q0 70 -22.5 128.5t-62 99.5t-95 64t-121.5 23q-65 0 -119.5 -24t-93.5 -66t-60.5 -100t-21.5 -125zM403 999l177 283h143l-180 -283h-140z" />
    <glyph glyph-name="ocircumflex" unicode="&#xf4;" horiz-adv-x="1010" 
d="M70 420q0 92 32 172.5t89.5 140t136.5 93.5t174 34q94 0 174.5 -33.5t139 -92t91.5 -138.5t33 -172q0 -96 -33.5 -178t-92 -142.5t-138 -94.5t-172.5 -34q-92 0 -171.5 32.5t-138 91t-91.5 140.5t-33 181zM207 420q0 -71 21.5 -130t60.5 -102t93.5 -66.5t119.5 -23.5
q70 0 125.5 24.5t94.5 67.5t60 102t21 128q0 70 -22.5 128.5t-62 99.5t-95 64t-121.5 23q-65 0 -119.5 -24t-93.5 -66t-60.5 -100t-21.5 -125zM227 992l209 275h117l208 -275h-143l-125 172l-125 -172h-141z" />
    <glyph glyph-name="otilde" unicode="&#xf5;" horiz-adv-x="1010" 
d="M70 420q0 92 32 172.5t89.5 140t136.5 93.5t174 34q94 0 174.5 -33.5t139 -92t91.5 -138.5t33 -172q0 -96 -33.5 -178t-92 -142.5t-138 -94.5t-172.5 -34q-92 0 -171.5 32.5t-138 91t-91.5 140.5t-33 181zM207 420q0 -71 21.5 -130t60.5 -102t93.5 -66.5t119.5 -23.5
q70 0 125.5 24.5t94.5 67.5t60 102t21 128q0 70 -22.5 128.5t-62 99.5t-95 64t-121.5 23q-65 0 -119.5 -24t-93.5 -66t-60.5 -100t-21.5 -125zM211 999q1 42 9.5 78.5t27 63.5t49 42t77.5 15q34 0 70 -16t63 -33q29 -17 55.5 -30t49.5 -13q28 0 40.5 22.5t14.5 65.5h113
q-1 -42 -9 -78.5t-26.5 -63.5t-49.5 -42t-77 -15q-35 0 -71.5 16.5t-65.5 35.5q-29 17 -53.5 28.5t-47.5 11.5q-27 0 -40 -23t-15 -65h-114z" />
    <glyph glyph-name="odieresis" unicode="&#xf6;" horiz-adv-x="1010" 
d="M70 420q0 92 32 172.5t89.5 140t136.5 93.5t174 34q94 0 174.5 -33.5t139 -92t91.5 -138.5t33 -172q0 -96 -33.5 -178t-92 -142.5t-138 -94.5t-172.5 -34q-92 0 -171.5 32.5t-138 91t-91.5 140.5t-33 181zM207 420q0 -71 21.5 -130t60.5 -102t93.5 -66.5t119.5 -23.5
q70 0 125.5 24.5t94.5 67.5t60 102t21 128q0 70 -22.5 128.5t-62 99.5t-95 64t-121.5 23q-65 0 -119.5 -24t-93.5 -66t-60.5 -100t-21.5 -125zM264 999v197h135v-197h-135zM585 999v197h136v-197h-136z" />
    <glyph glyph-name="divide" unicode="&#xf7;" horiz-adv-x="1536" 
d="M208 684v212h1120v-212h-1120zM608 388q0 64 42 112t118 48q72 0 116 -48t44 -112t-48 -112t-112 -48t-112 48t-48 112zM608 1188q0 64 42 112t118 48q72 0 116 -48t44 -112t-48 -112t-112 -48t-112 48t-48 112z" />
    <glyph glyph-name="oslash" unicode="&#xf8;" horiz-adv-x="1010" 
d="M70 420q0 92 32 172.5t89.5 140t136.5 93.5t174 34q83 0 155 -26t129 -74l99 100l69 -65l-102 -103q42 -56 65 -123.5t23 -144.5q0 -96 -33.5 -178t-92 -142.5t-138 -94.5t-172.5 -34q-81 0 -150 24t-125 69l-90 -93l-67 68l92 92q-45 56 -69.5 127t-24.5 158zM207 420
q0 -54 14 -102t39 -87l434 439q-77 65 -192 65q-65 0 -119.5 -24t-93.5 -66t-60.5 -100t-21.5 -125zM322 158q35 -28 80.5 -44t99.5 -16q70 0 125.5 24.5t94.5 67.5t60 102t21 128q0 51 -13 95t-34 79z" />
    <glyph glyph-name="ugrave" unicode="&#xf9;" horiz-adv-x="948" 
d="M117 281v555h133v-533q0 -43 13 -81t37.5 -66t61 -44t84.5 -16q56 0 100.5 23.5t75.5 61t47.5 82.5t16.5 89v484h133v-836h-133v121q-37 -65 -105.5 -105.5t-156.5 -40.5q-74 0 -131 21.5t-96 61.5t-59.5 96.5t-20.5 126.5zM254 1281h144l176 -283h-139z" />
    <glyph glyph-name="uacute" unicode="&#xfa;" horiz-adv-x="948" 
d="M117 281v555h133v-533q0 -43 13 -81t37.5 -66t61 -44t84.5 -16q56 0 100.5 23.5t75.5 61t47.5 82.5t16.5 89v484h133v-836h-133v121q-37 -65 -105.5 -105.5t-156.5 -40.5q-74 0 -131 21.5t-96 61.5t-59.5 96.5t-20.5 126.5zM364 998l177 283h143l-180 -283h-140z" />
    <glyph glyph-name="ucircumflex" unicode="&#xfb;" horiz-adv-x="948" 
d="M117 281v555h133v-533q0 -43 13 -81t37.5 -66t61 -44t84.5 -16q56 0 100.5 23.5t75.5 61t47.5 82.5t16.5 89v484h133v-836h-133v121q-37 -65 -105.5 -105.5t-156.5 -40.5q-74 0 -131 21.5t-96 61.5t-59.5 96.5t-20.5 126.5zM204 998l209 275h117l208 -275h-143l-125 172
l-125 -172h-141z" />
    <glyph glyph-name="udieresis" unicode="&#xfc;" horiz-adv-x="948" 
d="M117 281v555h133v-533q0 -43 13 -81t37.5 -66t61 -44t84.5 -16q56 0 100.5 23.5t75.5 61t47.5 82.5t16.5 89v484h133v-836h-133v121q-37 -65 -105.5 -105.5t-156.5 -40.5q-74 0 -131 21.5t-96 61.5t-59.5 96.5t-20.5 126.5zM243 994v197h135v-197h-135zM564 994v197h136
v-197h-136z" />
    <glyph glyph-name="yacute" unicode="&#xfd;" horiz-adv-x="838" 
d="M31 836h143l252 -662l242 662h139l-391 -1024q-15 -39 -35 -74t-47.5 -61t-64.5 -41t-85 -15q-38 0 -68 5t-61 18v125q23 -13 46 -19t49 -6q37 0 62 12.5t42.5 33.5t30 49t24.5 59l39 98zM337 999l177 283h143l-180 -283h-140z" />
    <glyph glyph-name="thorn" unicode="&#xfe;" horiz-adv-x="1001" 
d="M129 -367v1862h133v-799q20 34 49.5 63.5t67 52t81 35.5t91.5 13q87 0 157 -34.5t120 -93.5t77 -138t27 -168q0 -99 -30.5 -182t-83 -142.5t-124 -93t-153.5 -33.5q-50 0 -93.5 14t-79 37t-62.5 52.5t-44 60.5v-506h-133zM254 418q0 -60 20 -117.5t55.5 -102.5t85 -72.5
t109.5 -27.5q63 0 113 23.5t85.5 65.5t54 101t18.5 130q0 64 -17 121.5t-50.5 101t-83.5 69t-116 25.5q-60 0 -110 -25.5t-86.5 -68.5t-57 -101t-20.5 -122z" />
    <glyph glyph-name="ydieresis" unicode="&#xff;" horiz-adv-x="838" 
d="M31 836h143l252 -662l242 662h139l-391 -1024q-15 -39 -35 -74t-47.5 -61t-64.5 -41t-85 -15q-38 0 -68 5t-61 18v125q23 -13 46 -19t49 -6q37 0 62 12.5t42.5 33.5t30 49t24.5 59l39 98zM192 988v197h135v-197h-135zM513 988v197h136v-197h-136z" />
    <glyph glyph-name="dotlessi" unicode="&#x131;" horiz-adv-x="391" 
d="M129 0v836h133v-836h-133z" />
    <glyph glyph-name="glyph195" 
 />
    <glyph glyph-name="glyph196" 
 />
    <glyph glyph-name="OE" unicode="&#x152;" horiz-adv-x="2378" 
d="M92 750q0 109 26 208.5t74 185t115.5 155t151 118.5t180 76t201.5 27q96 0 184 -21.5t164.5 -61.5t141 -97t112.5 -128v283h792v-131h-649v-537h606v-131h-606v-565h688v-131h-831v289q-49 -72 -113.5 -130t-141 -99t-163 -63t-180.5 -22q-105 0 -201.5 26.5t-180 76
t-152 119t-117 155.5t-75 186.5t-26.5 211.5zM242 750q0 -137 47.5 -253.5t129 -202t191 -133.5t234.5 -48q124 0 233.5 47t191 132t128.5 202t47 258q0 134 -45 249.5t-125.5 200t-191.5 132.5t-242 48q-129 0 -238.5 -48t-189.5 -133t-125 -200.5t-45 -250.5z" />
    <glyph glyph-name="oe" unicode="&#x153;" horiz-adv-x="1659" 
d="M70 420q0 92 31 172.5t87.5 140t134.5 93.5t173 34q59 0 113.5 -14t101 -40.5t84 -64.5t61.5 -86q23 45 58 83t80 65t98.5 42t115.5 15q93 0 164.5 -36t120.5 -97.5t74.5 -142t27.5 -170.5h-671q0 -69 20 -127.5t58 -101t93 -66t124 -23.5q46 0 84.5 8t71.5 23t63 36.5
t59 47.5l82 -82q-30 -30 -67 -58t-82 -49t-98.5 -34t-117.5 -13t-119 15.5t-100 43t-79.5 66.5t-57.5 86q-24 -48 -61 -87t-84 -66.5t-101.5 -42.5t-113.5 -15q-92 0 -170.5 32.5t-135.5 91t-89.5 140.5t-32.5 181zM207 420q0 -71 20.5 -130t58.5 -102t91.5 -66.5
t118.5 -23.5q70 0 125 24.5t93 67.5t58.5 102t20.5 128q0 70 -21 128.5t-60 99.5t-94 64t-122 23q-65 0 -118.5 -24t-91.5 -66t-58.5 -100t-20.5 -125zM930 520h514q-7 42 -26 81.5t-50 70t-73.5 49t-96.5 18.5q-59 0 -105 -17t-79.5 -46.5t-54.5 -69.5t-29 -86z" />
    <glyph glyph-name="Scaron" unicode="&#x160;" horiz-adv-x="1022" 
d="M92 129l86 107q65 -57 149.5 -90t174.5 -33q61 0 114 17t93 50t63 80t23 107q0 65 -25.5 114t-67.5 88t-96.5 70l-111.5 61l-142 76t-125 90t-89 119.5t-34 163.5q0 83 30 151.5t83.5 117t127 75.5t159.5 27q115 0 211 -34t180 -112l-88 -108q-66 64 -137 90t-166 26
q-49 0 -94.5 -14.5t-80 -43.5t-55 -71.5t-20.5 -97.5q0 -67 24.5 -114t68 -84t103 -69l130.5 -69q68 -35 133 -73t116 -89t82 -119t31 -163q0 -92 -35.5 -165.5t-95.5 -126t-139 -80.5t-166 -28q-112 0 -218 38t-196 116zM238 1892h143l125 -172l125 172h141l-208 -275h-117
z" />
    <glyph glyph-name="scaron" unicode="&#x161;" horiz-adv-x="739" 
d="M76 76l71 102q50 -38 109.5 -59t110.5 -21q30 0 58.5 8.5t51 24t36 38t13.5 50.5q0 34 -14.5 58t-40 41.5t-59 31l-70.5 27.5q-44 15 -88 35t-79.5 49.5t-58 71t-22.5 100.5q0 52 23 94t61 71.5t87 45.5t102 16q69 0 137 -18.5t131 -65.5l-62 -102q-49 35 -101.5 51
t-104.5 16q-25 0 -50 -6t-45 -18.5t-32.5 -32t-12.5 -47.5q0 -27 12.5 -47t35 -35.5t54.5 -29t70 -27.5q46 -16 93 -37t84.5 -52.5t61.5 -76.5t24 -109q0 -53 -24 -98t-64 -78t-93 -51.5t-110 -18.5q-84 0 -161 27t-134 72zM97 1274h143l125 -172l125 172h141l-208 -275
h-117z" />
    <glyph glyph-name="Ydieresis" unicode="&#x178;" horiz-adv-x="1303" 
d="M49 1495h166l438 -651l437 651h161l-532 -790v-705h-144v707zM424 1595v197h135v-197h-135zM745 1595v197h136v-197h-136z" />
    <glyph glyph-name="Zcaron" unicode="&#x17d;" horiz-adv-x="1276" 
d="M63 0l873 1360h-758v135h1008l-877 -1360h869v-135h-1115zM379 1890h143l125 -172l125 172h141l-208 -275h-117z" />
    <glyph glyph-name="zcaron" unicode="&#x17e;" horiz-adv-x="868" 
d="M39 0l532 711h-454v125h702l-534 -713h495v-123h-741zM187 1274h143l125 -172l125 172h141l-208 -275h-117z" />
    <glyph glyph-name="florin" unicode="&#x192;" horiz-adv-x="551" 
d="M-51 -362l10 118q14 -1 26 -2q11 -1 20.5 -1t14.5 1q36 2 60 27.5t29 79.5l73 852h-116l10 123h119l41 475q4 48 22.5 83.5t47 58t63.5 33.5t73 11h18h24q13 0 24.5 -0.5t17.5 -1.5l-10 -121q-14 1 -26 2q-11 1 -20.5 1t-14.5 -1q-35 -2 -59 -27t-29 -79l-39 -434h137
l-10 -123h-138l-77 -891q-4 -48 -23 -84t-47.5 -59t-64 -34.5t-72.5 -11.5h-17q-12 0 -24.5 0.5t-24 1.5t-18.5 3z" />
    <glyph glyph-name="circumflex" unicode="&#x2c6;" horiz-adv-x="956" 
d="M211 999l209 275h117l208 -275h-143l-125 172l-125 -172h-141z" />
    <glyph glyph-name="caron" unicode="&#x2c7;" horiz-adv-x="956" 
d="M209 1274h143l125 -172l125 172h141l-208 -275h-117z" />
    <glyph glyph-name="glyph207" 
 />
    <glyph glyph-name="glyph208" 
 />
    <glyph glyph-name="ring" unicode="&#x2da;" horiz-adv-x="956" 
d="M266 1198q0 44 16.5 82.5t45 67t67 45t82.5 16.5q45 0 83.5 -16.5t67.5 -45t45.5 -67t16.5 -82.5q0 -45 -16.5 -83.5t-45.5 -67.5t-67.5 -45.5t-83.5 -16.5q-44 0 -82.5 16.5t-67 45.5t-45 67.5t-16.5 83.5zM358 1198q0 -26 9.5 -48t25.5 -38t38 -25.5t46 -9.5
q25 0 47.5 9.5t38.5 25.5t25.5 38t9.5 48q0 25 -9.5 46.5t-25.5 37.5t-38.5 25.5t-47.5 9.5q-24 0 -46 -9.5t-38 -25.5t-25.5 -37.5t-9.5 -46.5z" />
    <glyph glyph-name="glyph210" 
 />
    <glyph glyph-name="tilde" unicode="&#x2dc;" horiz-adv-x="956" 
d="M193 999q1 42 9.5 78.5t27 63.5t49 42t77.5 15q34 0 70 -16t63 -33q29 -17 55.5 -30t49.5 -13q28 0 40.5 22.5t14.5 65.5h113q-1 -42 -9 -78.5t-26.5 -63.5t-49.5 -42t-77 -15q-35 0 -71.5 16.5t-65.5 35.5q-29 17 -53.5 28.5t-47.5 11.5q-27 0 -40 -23t-15 -65h-114z
" />
    <glyph glyph-name="glyph212" 
 />
    <glyph glyph-name="glyph213" 
 />
    <glyph glyph-name="glyph214" 
 />
    <glyph glyph-name="glyph215" 
 />
    <glyph glyph-name="endash" unicode="&#x2013;" horiz-adv-x="885" 
d="M109 387v125h667v-125h-667z" />
    <glyph glyph-name="emdash" unicode="&#x2014;" horiz-adv-x="1237" 
d="M109 387v125h1017v-125h-1017z" />
    <glyph glyph-name="quoteleft" unicode="&#x2018;" horiz-adv-x="367" 
d="M104 1096v137q0 37 10.5 75t27 73t36 64.5t37.5 49.5h88q-26 -42 -38.5 -98.5t-12.5 -118.5v-182h-148z" />
    <glyph glyph-name="quoteright" unicode="&#x2019;" horiz-adv-x="367" 
d="M66 1096q26 42 38.5 98.5t12.5 118.5v182h147v-137q0 -37 -10.5 -75t-27 -73t-36.5 -64.5t-38 -49.5h-86z" />
    <glyph glyph-name="quotesinglbase" unicode="&#x201a;" horiz-adv-x="367" 
d="M61 -203q26 42 40 98t14 119v183h145v-138q0 -38 -10.5 -76t-27 -72.5t-35.5 -64t-37 -49.5h-89z" />
    <glyph glyph-name="quotedblleft" unicode="&#x201c;" horiz-adv-x="629" 
d="M102 1096v137q0 37 11 75t27.5 73t36.5 64.5t38 49.5h86q-26 -42 -38.5 -98.5t-12.5 -118.5v-182h-148zM367 1096v137q0 37 10.5 75t27 73t36.5 64.5t38 49.5h86q-26 -42 -38.5 -98.5t-12.5 -118.5v-182h-147z" />
    <glyph glyph-name="quotedblright" unicode="&#x201d;" horiz-adv-x="629" 
d="M66 1096q26 42 38.5 98.5t12.5 118.5v182h147v-137q0 -37 -10.5 -75t-27 -73t-36.5 -64.5t-38 -49.5h-86zM330 1096q26 42 38.5 98.5t12.5 118.5v182h147v-137q0 -37 -10.5 -75t-27 -73t-36.5 -64.5t-38 -49.5h-86z" />
    <glyph glyph-name="quotedblbase" unicode="&#x201e;" horiz-adv-x="629" 
d="M61 -203q26 42 40 98t14 119v183h145v-138q0 -38 -10.5 -76t-27 -72.5t-35.5 -64t-37 -49.5h-89zM326 -203q26 42 38.5 98t12.5 119v183h147v-138q0 -38 -10.5 -76t-27 -72.5t-36.5 -64t-38 -49.5h-86z" />
    <glyph glyph-name="dagger" unicode="&#x2020;" horiz-adv-x="1087" 
d="M45 805v121h432v569h133v-569h432v-121h-432v-1172h-133v1172h-432z" />
    <glyph glyph-name="daggerdbl" unicode="&#x2021;" horiz-adv-x="1087" 
d="M45 229v121h432v455h-432v121h432v569h133v-569h432v-121h-432v-455h432v-121h-432v-596h-133v596h-432z" />
    <glyph glyph-name="bullet" unicode="&#x2022;" horiz-adv-x="686" 
d="M152 776q0 39 15 74t41 61t60.5 41t73.5 15t73.5 -15t60.5 -41t41 -61t15 -74t-15 -73.5t-41 -60.5t-60.5 -41t-73.5 -15t-73.5 15t-60.5 41t-41 60.5t-15 73.5z" />
    <glyph glyph-name="ellipsis" unicode="&#x2026;" horiz-adv-x="1100" 
d="M109 0v197h147v-197h-147zM477 0v197h146v-197h-146zM844 0v197h147v-197h-147z" />
    <glyph glyph-name="perthousand" unicode="&#x2030;" horiz-adv-x="2150" 
d="M102 1133q0 82 20.5 153t58.5 123t92 81.5t122 29.5q70 0 124 -30.5t90.5 -82.5t55.5 -121t19 -147q0 -83 -20.5 -154.5t-59 -124t-93 -82.5t-122.5 -30q-54 0 -106 23.5t-92 71.5t-64.5 120.5t-24.5 169.5zM156 0l1022 1495h149l-1022 -1495h-149zM229 1133
q0 -55 10 -104.5t29.5 -87t49.5 -59.5t71 -22q44 0 75.5 22.5t51.5 60t29.5 87t9.5 103.5q0 52 -9.5 101.5t-29.5 87.5t-50 61.5t-71 23.5t-72 -22t-52 -59.5t-31.5 -87.5t-10.5 -105zM819 360q0 82 20.5 153t58.5 123.5t92 82t122 29.5q70 0 123.5 -30.5t90.5 -82.5
t56 -121.5t19 -146.5q0 -83 -20.5 -155t-59 -124.5t-93 -82.5t-122.5 -30q-54 0 -106 24t-92 72t-64.5 120t-24.5 169zM948 360q0 -54 9.5 -103.5t29 -87t49 -59.5t70.5 -22q44 0 75.5 22.5t52 60t30.5 86.5t10 103q0 52 -10 102t-30 88t-50.5 61.5t-71.5 23.5t-71.5 -22
t-51 -60t-31 -88t-10.5 -105zM1487 360q0 82 20.5 153t58.5 123.5t92 82t122 29.5q70 0 123.5 -30.5t90 -82.5t55.5 -121.5t19 -146.5q0 -83 -20.5 -155t-58.5 -124.5t-92.5 -82.5t-122.5 -30q-55 0 -106.5 24t-91.5 72t-64.5 120t-24.5 169zM1614 360q0 -54 9.5 -103.5
t29.5 -87t50 -59.5t71 -22q43 0 74.5 22.5t51.5 60t29.5 86.5t9.5 103q0 52 -9.5 102t-29.5 88t-50 61.5t-70 23.5q-42 0 -73 -22t-51.5 -60t-31 -88t-10.5 -105z" />
    <glyph glyph-name="guilsinglleft" unicode="&#x2039;" horiz-adv-x="426" 
d="M49 399v70l303 283v-146l-176 -172l176 -172v-147z" />
    <glyph glyph-name="guilsinglright" unicode="&#x203a;" horiz-adv-x="426" 
d="M74 115v145l176 172l-176 172v148l303 -285v-70z" />
    <glyph glyph-name="glyph231" 
 />
    <glyph glyph-name="Euro" unicode="&#x20ac;" horiz-adv-x="1243" 
d="M41 608v86h164q-2 25 -2 46.5t2 45.5h-164v82h168q12 138 50.5 257.5t104 207t159 137.5t216.5 50q154 0 260 -72t172 -201l-124 -65q-25 45 -55 82.5t-67.5 64.5t-84 42t-103.5 15q-89 0 -155.5 -41t-113 -111.5t-73.5 -165t-37 -200.5h455v-82h-459q-3 -48 0 -92h459
v-86h-453q12 -98 40 -188t74 -159t110.5 -110.5t148.5 -41.5q57 0 104 15t86 43t70 67.5t56 87.5l127 -66q-70 -135 -178.5 -208t-266.5 -73q-111 0 -201 46t-156.5 129.5t-108 200t-54.5 257.5h-170z" />
    <glyph glyph-name="glyph233" 
 />
    <glyph glyph-name="trademark" unicode="&#x2122;" horiz-adv-x="1642" 
d="M55 1405v90h504v-90h-203v-807h-98v807h-203zM702 598v897h97l321 -463l318 463h100v-897h-98v743l-297 -436h-43l-299 430v-737h-99z" />
    <glyph glyph-name="glyph235" 
 />
    <glyph glyph-name="glyph236" 
 />
    <glyph glyph-name="glyph237" 
 />
    <glyph glyph-name="glyph238" 
 />
    <glyph glyph-name="glyph239" 
 />
    <glyph glyph-name="glyph240" 
 />
    <glyph glyph-name="glyph241" 
 />
    <glyph glyph-name="glyph242" 
 />
    <glyph glyph-name="glyph243" 
 />
    <glyph glyph-name="glyph244" 
 />
    <glyph glyph-name="glyph245" 
 />
    <glyph glyph-name="glyph246" 
 />
    <glyph glyph-name="glyph247" 
 />
    <glyph glyph-name="glyph248" 
 />
    <glyph glyph-name="glyph254" 
 />
    </font>
</defs>
</svg>
