<svg xmlns="http://www.w3.org/2000/svg" width="24.729" height="30.09" viewBox="0 0 24.729 30.09">
  <g id="Group_5129" data-name="Group 5129" transform="translate(0 0)" opacity="0.5">
    <path id="Path_1367" data-name="Path 1367" d="M24.158,31.258H1.865l5.4-6.366a.65.65,0,0,0,.017-.87.538.538,0,0,0-.8-.019l-.051.056-6.274,7.4a.356.356,0,0,0-.046.08h0a.908.908,0,0,0-.051.08h0v.1A.554.554,0,0,0,0,31.875H0v.21H0a.908.908,0,0,0,.051.08h0a.355.355,0,0,0,.046.08l6.274,7.4a.543.543,0,0,0,.8.093.653.653,0,0,0,.086-.87.456.456,0,0,0-.051-.056L1.865,32.492H24.158a.619.619,0,0,0,0-1.234Z" transform="translate(0 -9.789)" fill="#1e2423"/>
    <path id="Path_1368" data-name="Path 1368" d="M10.57,8.557H32.864l-5.4,6.366a.653.653,0,0,0,.086.87.535.535,0,0,0,.753-.037l6.274-7.4a.471.471,0,0,0,.04-.074h0a.908.908,0,0,0,.051-.08h0v-.1a.719.719,0,0,0,.063-.154h0v-.21h0a.909.909,0,0,0-.051-.08h0a.472.472,0,0,0-.04-.074L28.363.174a.538.538,0,0,0-.8.019.658.658,0,0,0-.034.814l5.339,6.317H10.57a.619.619,0,0,0,0,1.234Z" transform="translate(-10 -0.002)" fill="#1e2423"/>
  </g>
</svg>
