<?xml version="1.0" encoding="utf-8"?>
<!-- Generator: Adobe Illustrator 16.0.0, SVG Export Plug-In . SVG Version: 6.00 Build 0)  -->
<!DOCTYPE svg PUBLIC "-//W3C//DTD SVG 1.1//EN" "http://www.w3.org/Graphics/SVG/1.1/DTD/svg11.dtd">
<svg version="1.1" id="Layer_1" xmlns="http://www.w3.org/2000/svg" xmlns:xlink="http://www.w3.org/1999/xlink" x="0px" y="0px"
	 width="328px" height="293.474px" viewBox="0 0 328 293.474" enable-background="new 0 0 328 293.474" xml:space="preserve">
<path fill-rule="evenodd" clip-rule="evenodd" fill="#A4A4A4" d="M45.991,97.247c1.825-4.478,5.141-6.011,9.949-6.004
	c71.001,0.097,142.003,0.067,213.005,0.067c0.981,0,1.964,0,3.562,0c-0.927-0.974-1.498-1.599-2.096-2.196
	c-10.506-10.51-21.041-20.992-31.512-31.537c-4.563-4.596-2.973-11.695,2.985-13.504c3.326-1.01,6.095,0.072,8.517,2.508
	c10.306,10.36,20.658,20.674,30.991,31.006c4.788,4.787,9.626,9.525,14.325,14.396c1.518,1.572,2.667,3.5,3.984,5.264
	c0,1.321,0,2.643,0,3.964c-1.376,1.823-2.562,3.835-4.156,5.441c-14.954,15.052-29.994,30.017-44.962,45.054
	c-2.41,2.421-5.111,3.653-8.465,2.762c-5.775-1.537-7.802-8.598-3.729-13.045c2.284-2.494,4.759-4.813,7.152-7.207
	c8.289-8.29,16.58-16.577,24.866-24.87c0.57-0.57,1.11-1.17,2.081-2.198c-1.417,0-2.355,0-3.294,0
	c-71.082,0-142.163-0.03-213.245,0.066c-4.807,0.006-8.109-1.559-9.959-6.003C45.991,99.89,45.991,98.568,45.991,97.247z"/>
<path fill-rule="evenodd" clip-rule="evenodd" fill="#A4A4A4" d="M299.702,212.209c-1.856,4.431-5.14,6.013-9.956,6.006
	c-70.994-0.099-141.988-0.068-212.982-0.068c-0.981,0-1.964,0-3.561,0c0.931,0.977,1.5,1.6,2.096,2.195
	c10.446,10.451,20.907,20.888,31.336,31.356c3.311,3.323,3.727,7.647,1.171,10.93c-2.995,3.848-8.35,4.239-11.961,0.737
	c-4.267-4.138-8.422-8.39-12.626-12.593c-11.032-11.031-22.093-22.036-33.068-33.124c-1.593-1.609-2.783-3.616-4.159-5.439
	c0-1.321,0-2.643,0-3.964c1.318-1.765,2.447-3.718,3.984-5.265c15.011-15.108,30.11-30.13,45.131-45.229
	c2.344-2.357,4.973-3.57,8.229-2.849c5.563,1.231,7.952,8.056,4.461,12.574c-0.603,0.779-1.333,1.464-2.032,2.163
	c-10.095,10.103-20.188,20.206-30.307,30.284c-0.629,0.626-1.466,1.043-2.205,1.558c0.149,0.275,0.299,0.551,0.448,0.826
	c0.939,0,1.878,0,2.817,0c71.076,0,142.152,0.031,213.229-0.068c4.816-0.007,8.101,1.572,9.955,6.006
	C299.702,209.566,299.702,210.888,299.702,212.209z"/>
</svg>
