<svg xmlns="http://www.w3.org/2000/svg" width="38.622" height="23.497" viewBox="0 0 38.622 23.497">
  <g id="Group_5140" data-name="Group 5140" transform="translate(5629.705 974.545)">
    <path id="Path_21820" data-name="Path 21820" d="M-5623.566-966.558c.027.03.055.061.084.09a2.278,2.278,0,0,0,1.058.6,2.317,2.317,0,0,0,.554.067h0a2.271,2.271,0,0,0,1.613-.667l.025-.027a2.273,2.273,0,0,0,.562-.979,2.246,2.246,0,0,0,.083-.6,2.267,2.267,0,0,0-.674-1.61,2.266,2.266,0,0,0-.449-.348,2.26,2.26,0,0,0-1.159-.317h-.005a2.257,2.257,0,0,0-.52.06,2.264,2.264,0,0,0-1.093.608,2.277,2.277,0,0,0-.274.331,2.228,2.228,0,0,0-.353.856,2.2,2.2,0,0,0-.039.421,2.241,2.241,0,0,0,.226.989A2.287,2.287,0,0,0-5623.566-966.558Zm.767-2.063a1.125,1.125,0,0,1,.151-.2l.017-.018c.03-.029.062-.057.095-.084a1.1,1.1,0,0,1,.52-.22,1.478,1.478,0,0,0,.149-.01.89.89,0,0,1,.185.016,1.1,1.1,0,0,1,.565.284l.014.014a1.01,1.01,0,0,1,.111.129,1.08,1.08,0,0,1,.207.634,1.06,1.06,0,0,1-.009.136,1.09,1.09,0,0,1-.1.326,1.107,1.107,0,0,1-.2.281l-.016.016a1.076,1.076,0,0,1-.623.306c-.029,0-.058.006-.087.008h-.057a1.092,1.092,0,0,1-.48-.113,1.175,1.175,0,0,1-.3-.214,1.07,1.07,0,0,1-.3-.747A1.064,1.064,0,0,1-5622.8-968.621Z" fill="#3cbfae"/>
    <path id="Path_21821" data-name="Path 21821" d="M-5591.193-970.786a2.733,2.733,0,0,0-.684-1.074,2.711,2.711,0,0,0-1.031-.64,1.861,1.861,0,0,0-1.6.168,38.068,38.068,0,0,0-5.1,4.035,56.621,56.621,0,0,0-5.1,5.356l-.026.026c-.414.507-.759.953-1.051,1.363q-.348.48-.654,1a9.826,9.826,0,0,0-4.045,1.684,5.933,5.933,0,0,0-2.22,4.174c-.23,1.881-.892,2.14-.9,2.141a.608.608,0,0,0-.367.292.61.61,0,0,0-.053.465.617.617,0,0,0,.486.438,22.206,22.206,0,0,0,3.7.31c.263,0,.527-.005.791-.014a5.347,5.347,0,0,0,4.2-2.145l-.2-.149h0v-.005h0l.207.14a10.082,10.082,0,0,0,1.6-4.111c.345-.217.712-.463,1.093-.733.434-.3.88-.642,1.327-1a.687.687,0,0,0,.055-.05,53.129,53.129,0,0,0,5.308-4.962,37.493,37.493,0,0,0,4.1-5.131A1.83,1.83,0,0,0-5591.193-970.786Zm-10.913,11.2c-.248.19-.5.37-.737.541-.3.211-.585.405-.859.581l-1.611-1.645c.142-.229.31-.48.5-.748s.383-.521.6-.792Zm-7.006,7.291a19.567,19.567,0,0,1-3.042-.115,4.917,4.917,0,0,0,.67-2.159,4.742,4.742,0,0,1,1.748-3.34,8.435,8.435,0,0,1,3.456-1.429l1.818,1.855a8.67,8.67,0,0,1-1.365,3.534,4.139,4.139,0,0,1-3.271,1.654Zm10.317-15.137a36.711,36.711,0,0,1,4.918-3.9.685.685,0,0,1,.582-.044,1.554,1.554,0,0,1,.59.377,1.522,1.522,0,0,1,.375.588.659.659,0,0,1-.038.558,36.328,36.328,0,0,1-3.962,4.951,52.1,52.1,0,0,1-4.83,4.558l-2.295-2.243A55.873,55.873,0,0,1-5598.795-967.428Z" fill="#3cbfae"/>
    <path id="Path_21822" data-name="Path 21822" d="M-5613.487-961.991c2.022.446,4.113.905,5.479-.486.717-.707.848-2.118.349-3.782a12.7,12.7,0,0,0-2.98-4.907l-.17-.173a11.091,11.091,0,0,0-7.829-3.206h-.036a10.935,10.935,0,0,0-7.77,3.212l-.053.055h0a10.92,10.92,0,0,0-3.208,7.751,10.926,10.926,0,0,0,3.212,7.718l.051.05a13.064,13.064,0,0,0,4.705,3.053,6.838,6.838,0,0,0,2.23.424,2.813,2.813,0,0,0,1.985-.662c1.381-1.416.883-3.6.442-5.528-.341-1.5-.663-2.912-.028-3.547S-5614.956-962.312-5613.487-961.991Zm-4.484-.852c-1.087,1.08-.691,2.81-.273,4.641.39,1.706.793,3.471-.127,4.418-.476.444-1.612.424-2.961-.051a11.777,11.777,0,0,1-4.255-2.765l-.056-.059a9.7,9.7,0,0,1-2.861-6.868,9.738,9.738,0,0,1,2.86-6.911l.014-.013.04-.033a9.745,9.745,0,0,1,6.921-2.857h.027a9.881,9.881,0,0,1,6.991,2.855l.149.157a11.478,11.478,0,0,1,2.695,4.424c.361,1.213.344,2.2-.066,2.605-.889.907-2.649.52-4.375.141C-5615.1-963.568-5616.858-963.953-5617.971-962.843Z" fill="#3cbfae"/>
    <path id="Path_21823" data-name="Path 21823" d="M-5615.569-966.552a2.258,2.258,0,0,0,1.433-.507c.035-.028.071-.057.105-.088l.038-.034.04-.038a2.231,2.231,0,0,0,.381-.507,2.264,2.264,0,0,0,.286-1.1h0a2.281,2.281,0,0,0-.673-1.607,2.344,2.344,0,0,0-3.225,0,2.254,2.254,0,0,0-.481.7,2.277,2.277,0,0,0-.193.9v0h0a2.333,2.333,0,0,0,.017.267,2.282,2.282,0,0,0,.656,1.34,2.3,2.3,0,0,0,.688.472,2.269,2.269,0,0,0,.924.2Zm-.766-3.028a1.115,1.115,0,0,1,1.53,0,1.082,1.082,0,0,1,.308.63,1.061,1.061,0,0,1,.007.125,1.086,1.086,0,0,1-.33.775,1.074,1.074,0,0,1-.747.3h0a1.082,1.082,0,0,1-.766-.317l0,0h0l0,0a1.074,1.074,0,0,1-.277-.479,1.035,1.035,0,0,1-.036-.274A1.071,1.071,0,0,1-5616.335-969.58Z" fill="#3cbfae"/>
    <path id="Path_21824" data-name="Path 21824" d="M-5621.862-959.869c-.032,0-.062,0-.092,0l-.2,0,0,.014a2.3,2.3,0,0,0-1.323.649l-.025.03a2.247,2.247,0,0,0-.645,1.581,2.274,2.274,0,0,0,.673,1.608,2.266,2.266,0,0,0,1.611.666h0a2.266,2.266,0,0,0,1.61-.665,2.278,2.278,0,0,0,.675-1.61,2.272,2.272,0,0,0-.673-1.6A2.287,2.287,0,0,0-5621.862-959.869Zm0,3.349h0a1.08,1.08,0,0,1-.762-.312l0,0a1.075,1.075,0,0,1-.316-.76,1.086,1.086,0,0,1,.077-.4,1.1,1.1,0,0,1,.2-.318l.038-.04a1.082,1.082,0,0,1,.766-.317h0a1.066,1.066,0,0,1,.277.036,1.064,1.064,0,0,1,.48.278,1.079,1.079,0,0,1,.318.761,1.085,1.085,0,0,1-.042.3,1.123,1.123,0,0,1-.278.466,1.079,1.079,0,0,1-.756.312Z" fill="#3cbfae"/>
    <path id="Path_21825" data-name="Path 21825" d="M-5622.4-962.537a2.285,2.285,0,0,0-.674-1.61,2.272,2.272,0,0,0-1.36-.652,1.907,1.907,0,0,0-.255-.014,2.3,2.3,0,0,0-1.613.665,2.285,2.285,0,0,0-.675,1.612,2.27,2.27,0,0,0,.169.847,2.281,2.281,0,0,0,.506.759,2.264,2.264,0,0,0,1.609.666h.006a2.273,2.273,0,0,0,1.612-.665A2.291,2.291,0,0,0-5622.4-962.537Zm-1.232.232a1.064,1.064,0,0,1-.288.523,1.083,1.083,0,0,1-.767.316h0a1.082,1.082,0,0,1-.762-.316,1.066,1.066,0,0,1-.318-.757,1,1,0,0,1,.011-.148,1.081,1.081,0,0,1,.307-.612,1.07,1.07,0,0,1,.762-.315h0a1.083,1.083,0,0,1,.392.073,1.132,1.132,0,0,1,.355.225l.018.017a1.082,1.082,0,0,1,.315.762A1.045,1.045,0,0,1-5623.629-962.3Z" fill="#3cbfae"/>
  </g>
</svg>
