<svg xmlns="http://www.w3.org/2000/svg" width="97.939" height="50.646" viewBox="0 0 97.939 50.646">
  <g id="Group_1483" data-name="Group 1483" transform="translate(-689.528 -407.717)">
    <path id="Path_1156" data-name="Path 1156" d="M694.492,439.64v12.611a2.482,2.482,0,0,1-4.964,0v-22.74a12.59,12.59,0,1,1,12.588,12.711,12.488,12.488,0,0,1-7.624-2.582m0-10.129v.05a7.724,7.724,0,1,0,0-.05" transform="translate(0 3.63)" fill="#fff"/>
    <path id="Path_1157" data-name="Path 1157" d="M710.278,413.8a2.466,2.466,0,0,1,0-3.545,2.5,2.5,0,0,1,3.512,3.545,2.531,2.531,0,0,1-3.512,0" transform="translate(7.991 0.709)" fill="#d02c30"/>
    <path id="Path_1158" data-name="Path 1158" d="M709.526,439.582V419.172a2.483,2.483,0,0,1,4.966,0v20.409a2.483,2.483,0,1,1-4.966,0" transform="translate(7.991 3.586)" fill="#fff"/>
    <path id="Path_1159" data-name="Path 1159" d="M730.215,419.172a2.528,2.528,0,0,1-2.508,2.532,7.659,7.659,0,0,0-7.625,7.7v10.179a2.483,2.483,0,1,1-4.964,0V429.4a12.658,12.658,0,0,1,12.59-12.711,2.485,2.485,0,0,1,2.508,2.482" transform="translate(10.226 3.586)" fill="#fff"/>
    <path id="Path_1160" data-name="Path 1160" d="M747.566,444.941a2.38,2.38,0,0,1-3.461-.3l-9.53-11.547-1.555,1.064v8.862a2.527,2.527,0,0,1-2.508,2.532,2.485,2.485,0,0,1-2.458-2.532V410.2a2.473,2.473,0,0,1,2.458-2.482,2.517,2.517,0,0,1,2.508,2.482v18.03l11.386-7.545a2.5,2.5,0,0,1,3.51.3,2.566,2.566,0,0,1-.35,3.545l-8.778,5.824,9.128,11.091a2.5,2.5,0,0,1-.35,3.495" transform="translate(15.396)" fill="#fff"/>
    <path id="Path_1161" data-name="Path 1161" d="M764.863,438.035a2.463,2.463,0,0,1-.452,3.495,2.41,2.41,0,0,1-1.5.557,2.534,2.534,0,0,1-1.957-.963l-5.869-7.647-5.869,7.647a2.533,2.533,0,0,1-1.955.963,2.4,2.4,0,0,1-1.5-.557,2.462,2.462,0,0,1-.452-3.495l6.62-8.661-6.62-8.659a2.53,2.53,0,0,1,.452-3.547,2.418,2.418,0,0,1,3.46.456l5.869,7.647,5.869-7.647a2.419,2.419,0,0,1,3.461-.456,2.531,2.531,0,0,1,.452,3.547l-6.622,8.659Z" transform="translate(22.077 3.564)" fill="#fff"/>
  </g>
</svg>
