<svg xmlns="http://www.w3.org/2000/svg" width="31.045" height="28.423" viewBox="0 0 31.045 28.423">
  <g id="Group_5141" data-name="Group 5141" transform="translate(5630.153 875.483)">
    <g id="Group_4884" data-name="Group 4884">
      <g id="Group_4883" data-name="Group 4883">
        <path id="Path_21828" data-name="Path 21828" d="M-5602.626-861.531a.543.543,0,0,1,.386.158l2.97,2.971a.543.543,0,0,1,.162.387.534.534,0,0,1-.153.383l-10.412,10.413a.554.554,0,0,1-.393.159h-2.969a.541.541,0,0,1-.388-.161.542.542,0,0,1-.161-.388v-2.962a.549.549,0,0,1,.158-.388l10.413-10.413a.543.543,0,0,1,.387-.159m-9.86,13.373h2.186l.147-.147,9.364-9.365.354-.353-.354-.354-1.479-1.479-.354-.353-.353.353-9.364,9.365-.147.146v2.187" fill="#3cbfae"/>
      </g>
    </g>
    <path id="Path_21829" data-name="Path 21829" d="M-5615.855-848.212H-5629v-26.119h14.955v7.307a.551.551,0,0,0,.576.576h6.966v5.618l1.152-1.266v-4.928a.612.612,0,0,0-.169-.4l-7.5-7.885a.612.612,0,0,0-.4-.172h-16.15a.551.551,0,0,0-.576.576v27.271a.551.551,0,0,0,.576.576h13.722Zm3-25.255,5.593,5.867h-5.593Z" fill="#3cbfae"/>
    <path id="Path_21830" data-name="Path 21830" d="M-5616.21-867.541h-10.851a.537.537,0,0,0-.537.537.538.538,0,0,0,.537.537h10.851a.538.538,0,0,0,.536-.537A.537.537,0,0,0-5616.21-867.541Z" fill="#3cbfae"/>
    <path id="Path_21831" data-name="Path 21831" d="M-5620.688-864.092a.536.536,0,0,0-.536-.536h-5.838a.536.536,0,0,0-.536.536.536.536,0,0,0,.536.537h5.838A.536.536,0,0,0-5620.688-864.092Z" fill="#3cbfae"/>
    <path id="Path_21832" data-name="Path 21832" d="M-5616.21-870.541h-10.851a.537.537,0,0,0-.537.537.538.538,0,0,0,.537.537h10.851a.538.538,0,0,0,.536-.537A.537.537,0,0,0-5616.21-870.541Z" fill="#3cbfae"/>
    <path id="Path_21833" data-name="Path 21833" d="M-5624.123-859.147a.485.485,0,0,0-.492-.006.487.487,0,0,0-.247.424v5.7a.487.487,0,0,0,.247.424.483.483,0,0,0,.241.063h0a.48.48,0,0,0,.25-.07l4.754-2.85a.488.488,0,0,0,.236-.418.49.49,0,0,0-.236-.418Zm.236,5.257v-3.979l3.318,1.99Z" fill="#3cbfae"/>
  </g>
</svg>
