<?xml version="1.0" encoding="utf-8"?>
<!-- Generator: Adobe Illustrator 16.0.0, SVG Export Plug-In . SVG Version: 6.00 Build 0)  -->
<!DOCTYPE svg PUBLIC "-//W3C//DTD SVG 1.1//EN" "http://www.w3.org/Graphics/SVG/1.1/DTD/svg11.dtd">
<svg version="1.1" id="Layer_1" xmlns="http://www.w3.org/2000/svg" xmlns:xlink="http://www.w3.org/1999/xlink" x="0px" y="0px"
	 width="300px" height="168.367px" viewBox="0 0 300 168.367" enable-background="new 0 0 300 168.367" xml:space="preserve">
<path fill-rule="evenodd" clip-rule="evenodd" d="M177.222,71.63c10.953-7.187,20.01-13.08,29.009-19.059
	c4.105-2.726,8.126-4.671,11.556,0.735c3.267,5.147-0.49,7.691-4.108,10.131c-5.255,3.543-10.403,7.276-15.872,10.454
	c-4.349,2.527-4.381,4.711-1.192,8.336c6.575,7.475,12.836,15.229,19.133,22.944c2.768,3.39,5.401,7.084,0.782,10.935
	c-4.867,4.059-8.193,1.055-11.326-2.779c-6.684-8.179-13.436-16.304-20.209-24.409c-1.302-1.558-2.495-3.837-5.068-2.853
	c-2.263,0.867-2.667,3.016-2.66,5.261c0.016,6.038,0.042,12.078-0.066,18.114c-0.084,4.689-1.59,8.648-7.137,8.463
	c-5.263-0.175-5.867-4.166-5.862-8.424c0.032-28.078,0.034-56.156-0.003-84.235c-0.005-4.286,0.667-8.219,5.908-8.391
	c5.578-0.183,7.067,3.818,7.09,8.485C177.268,40.082,177.222,54.825,177.222,71.63z"/>
<path fill-rule="evenodd" clip-rule="evenodd" d="M254.835,73.151c5.145-6.583,9.911-12.711,14.711-18.811
	c2.871-3.649,6.19-6.149,10.613-2.431c3.889,3.269,2.723,6.855,0.052,10.337c-4.582,5.973-8.964,12.111-13.763,17.902
	c-2.627,3.172-2.461,5.467,0.134,8.551c4.649,5.525,8.908,11.38,13.281,17.135c2.756,3.626,4.703,7.431-0.144,10.852
	c-4.636,3.271-7.831,0.565-10.635-3.046c-1.108-1.428-2.197-2.87-3.31-4.297c-11.052-14.185-11.054-14.185-22.243,0.417
	c-1.099,1.434-2.124,2.925-3.259,4.328c-2.965,3.664-6.408,5.775-10.794,2.319c-4.188-3.302-2.563-6.77,0.089-10.165
	c3.707-4.748,7.039-9.837,11.122-14.231c4.868-5.238,5.717-9.555,0.185-15.081c-4.435-4.43-7.781-9.947-11.63-14.966
	c-2.737-3.569-3.442-6.906,0.624-10.128c4.31-3.417,7.24-1.076,9.889,2.218C244.652,60.138,249.441,66.306,254.835,73.151z"/>
<path fill-rule="evenodd" clip-rule="evenodd" d="M115.284,95.745c0-5.718-0.138-11.509,0.553-17.142
	c1.9-15.473,16.759-28.108,31.851-27.873c4.115,0.064,7.316,1.005,7.716,5.605c0.379,4.367-2.255,6.404-6.291,7.384
	c-17.105,4.161-20.711,8.733-20.795,26.033c-0.034,6.932,0.024,13.865-0.048,20.798c-0.046,4.453-1.665,7.68-6.792,7.668
	c-5.459-0.015-6.201-3.73-6.195-8.005C115.288,105.39,115.284,100.567,115.284,95.745C115.431,95.745,115.136,95.745,115.284,95.745
	z"/>
<path fill-rule="evenodd" clip-rule="evenodd" d="M94.013,84.412c-0.002-8.716,0.067-17.431-0.029-26.146
	c-0.051-4.641,1.498-7.571,6.663-7.459c4.643,0.099,6.321,2.886,6.329,7.038c0.034,17.729,0.026,35.46-0.001,53.189
	c-0.006,4.186-1.797,6.979-6.333,7.085c-5.129,0.12-6.683-2.975-6.646-7.563C94.063,101.842,94.015,93.127,94.013,84.412z"/>
<path fill-rule="evenodd" clip-rule="evenodd" fill="#D13832" d="M107.07,30.333c-0.593,3.798-2.6,6.296-6.415,6.35
	c-4.229,0.059-6.872-2.613-6.918-6.662c-0.043-3.671,2.432-6.194,6.283-6.253C104.281,23.701,106.372,26.408,107.07,30.333z"/>
<path fill-rule="evenodd" clip-rule="evenodd" d="M85.098,78.041C82.114,62.645,66.685,50.66,50.859,51.446
	C33.16,52.327,18.833,66.073,18.275,84.042c-0.619,19.879-0.164,39.792-0.209,59.69c-0.012,4.785,1.406,8.579,6.908,8.6
	c5.225,0.019,6.295-3.888,6.33-8.115c0.082-9.927,0.025-19.853,0.025-31.722c10.829,6.091,20.696,7.751,30.926,4.613
	C78.97,111.981,88.486,95.516,85.098,78.041z M52.152,105.418c-11.364-0.091-20.784-9.549-20.633-20.718
	c0.15-11.139,9.986-20.817,20.997-20.662c11.351,0.161,20.524,9.606,20.44,21.046C72.872,96.662,63.817,105.512,52.152,105.418z"/>
</svg>
