<svg xmlns="http://www.w3.org/2000/svg" width="27.296" height="27.295" viewBox="0 0 27.296 27.295">
  <g id="Group_4955" data-name="Group 4955" transform="translate(5629.855 947.195)">
    <path id="Path_21826" data-name="Path 21826" d="M-5616.207-940.316h0a6.789,6.789,0,0,0-6.772,6.772,6.789,6.789,0,0,0,6.772,6.77,6.79,6.79,0,0,0,6.772-6.77A6.789,6.789,0,0,0-5616.207-940.316Zm-.015,1.23h.021a5.545,5.545,0,0,1,5.535,5.542,5.5,5.5,0,0,1-1.616,3.915,5.5,5.5,0,0,1-3.925,1.626h-.007a5.543,5.543,0,0,1-5.533-5.541A5.541,5.541,0,0,1-5616.222-939.086Z" fill="#3cbfae"/>
    <path id="Path_21827" data-name="Path 21827" d="M-5604.6-936.707h-.968a11.147,11.147,0,0,0-.882-2.124l.685-.685a2.057,2.057,0,0,0,0-2.886l-1.585-1.584a2.056,2.056,0,0,0-2.885,0l-.686.686a11.176,11.176,0,0,0-2.123-.882v-.97a2.056,2.056,0,0,0-2.04-2.038l-2.244-.005a2.058,2.058,0,0,0-2.04,2.04v.974a11.173,11.173,0,0,0-2.123.88l-.689-.688a2.055,2.055,0,0,0-2.885,0l-1.583,1.585a2.055,2.055,0,0,0,0,2.886l.688.687a11.091,11.091,0,0,0-.881,2.124h-.973a2.055,2.055,0,0,0-2.041,2.041v2.24a2.055,2.055,0,0,0,2.041,2.04h.973a11.074,11.074,0,0,0,.881,2.124l-.688.688a2.054,2.054,0,0,0,0,2.885l1.584,1.585a2.055,2.055,0,0,0,2.885,0l.688-.687a11.165,11.165,0,0,0,2.123.879v.974a2.057,2.057,0,0,0,2.041,2.039h2.242a2.056,2.056,0,0,0,2.039-2.04v-.973a11.191,11.191,0,0,0,2.123-.879l.689.688a2.055,2.055,0,0,0,2.885,0l1.584-1.584a2.056,2.056,0,0,0,0-2.885l-.688-.688a11.2,11.2,0,0,0,.88-2.124h.973a2.055,2.055,0,0,0,2.041-2.041v-2.24A2.055,2.055,0,0,0-5604.6-936.707Zm-2.036,5.561a9.817,9.817,0,0,1-1.109,2.678.615.615,0,0,0,.093.75l1.021,1.021a.8.8,0,0,1,0,1.144l-1.584,1.585a.8.8,0,0,1-.561.241h-.011a.806.806,0,0,1-.572-.243l-1.02-1.019a.613.613,0,0,0-.75-.092,9.882,9.882,0,0,1-2.679,1.108.615.615,0,0,0-.466.6v1.445a.8.8,0,0,1-.809.807h-2.243a.8.8,0,0,1-.808-.809v-1.443a.615.615,0,0,0-.467-.6,9.886,9.886,0,0,1-2.678-1.108.618.618,0,0,0-.317-.088.614.614,0,0,0-.434.18l-1.02,1.02a.794.794,0,0,1-.561.241h-.011a.8.8,0,0,1-.572-.242l-1.584-1.585a.783.783,0,0,1-.241-.561.8.8,0,0,1,.242-.583l1.019-1.02a.616.616,0,0,0,.092-.751,9.856,9.856,0,0,1-1.108-2.678.616.616,0,0,0-.6-.467h-1.443a.838.838,0,0,1-.567-.225.8.8,0,0,1-.241-.584v-2.242a.794.794,0,0,1,.225-.567.8.8,0,0,1,.585-.241h1.441a.616.616,0,0,0,.6-.467,9.827,9.827,0,0,1,1.108-2.677.617.617,0,0,0-.092-.752l-1.02-1.021a.8.8,0,0,1,0-1.144l1.584-1.584a.8.8,0,0,1,1.144,0l1.019,1.019a.617.617,0,0,0,.751.092,9.861,9.861,0,0,1,2.677-1.108.613.613,0,0,0,.467-.6v-1.444a.789.789,0,0,1,.226-.566.8.8,0,0,1,.551-.241h2.286a.8.8,0,0,1,.8.81v1.439a.616.616,0,0,0,.466.6,9.891,9.891,0,0,1,2.681,1.111.616.616,0,0,0,.751-.092l1.019-1.018a.792.792,0,0,1,.56-.241.755.755,0,0,1,.583.243l1.585,1.584a.793.793,0,0,1,.241.561.806.806,0,0,1-.242.584l-1.017,1.017a.614.614,0,0,0-.092.752,9.9,9.9,0,0,1,1.111,2.679.613.613,0,0,0,.6.467h1.452a.8.8,0,0,1,.795.81v2.242a.794.794,0,0,1-.225.567.805.805,0,0,1-.584.24h-1.442A.616.616,0,0,0-5606.636-931.146Z" fill="#3cbfae"/>
  </g>
</svg>
