<svg id="Layer_1"
data-name="Layer 1"
xmlns="http://www.w3.org/2000/svg"
viewBox="0 0 800 800">
<path fill="#ff6c00" d="M473.78,267.8q-17.58-2.08-35.24-3.4c-12.11-.88-24.5-2.1-36.65-1.54-20.68,1-37.14,13-46.27,31.28-9.29,18.62-13.51,39.32-15.54,59.89-2.41,24.5,2.24,49.34,15.18,70.47,23.26,38,71.5,60.31,115.38,50.2,37.91-8.74,68.16-41.22,73.72-79.94,7.1-49.41-22.05-103.16-68.32-123-4.16-1.79-9.28-3.1-13.48-.45-3.94,2.49-5.57,8-5.39,12.37.49,11.68,8.36,26.15,19.57,31,3.5,1.5,6.78,3.91,10.29,5.26,0,0-3.81-2.61-1.86-1.15.77.57,1.59,1.09,2.36,1.66,1.75,1.28,3.41,2.66,5.09,4,3.31,2.73-3.74-3.81.1.06q2,2.06,3.92,4.25c.63.73,1.22,1.5,1.86,2.22,1.94,2.17-2.27-2.92-1.94-2.65,1.5,1.22,2.64,3.75,3.67,5.38.52.83,3.95,7,1.65,2.59-2.14-4.12.44,1,.94,2.15.79,1.77,1.45,3.58,2.17,5.37.82,2-.09,2.84-.57-2a25,25,0,0,0,1,3.48c.43,1.64.81,3.28,1.13,4.94.18.95.32,1.9.5,2.85.65,3.39-.53-1.4-.15-1.45s.35,10.66.3,11.64a15.38,15.38,0,0,1-.21,2.93c.14-.49.66-4.38,0-.76-.29,1.69-.54,3.38-.89,5.06a85.66,85.66,0,0,1-3.44,12c-.34.92-.71,1.83-1.07,2.74.09-.23,1.26-2.64.33-.85s-1.69,3.53-2.62,5.26a88.5,88.5,0,0,1-6.27,9.95,105.93,105.93,0,0,1-7,8.51c-2.12,2.36-.53.6,0,.12-.7.69-1.43,1.36-2.15,2q-2.46,2.22-5.08,4.24a83.73,83.73,0,0,1-20,11.35c2.81-1.13-2.56.82-3.25,1q-2.58.75-5.21,1.33A88.27,88.27,0,0,1,437.37,430c-1.79.13-3.59.19-5.39.21-1,0-2.05,0-3.08,0-2.7,0,2.63.33,0,0-4.09-.57-8.16-.88-12.21-1.74-2-.42-4-.91-6-1.47-.75-.21-1.48-.44-2.22-.66-3.7-1.05,0,.19.48.24-3.6-.36-8.1-3.36-11.25-5-.9-.48-1.78-1-2.69-1.5-3.46-1.87.55.21,1,.67-1.21-1.36-3.64-2.51-5.1-3.64s-2.95-2.46-4.44-3.68c-2.57-2.1,3.28,3.45,1.06,1-.91-1-1.91-2-2.81-3a22.07,22.07,0,0,0-2.12-2.51c.47.36,3.58,5.34,1.21,1.56-.69-1.1-3.57-6.35-1.81-2.56,1.94,4.18-1.19-2.77-1.53-3.61a11.77,11.77,0,0,0-.86-2.28q1.5,4.89.72,2.22c-.23-.78-.44-1.57-.64-2.35q-.71-2.76-1.18-5.57c-.14-.77-.66-4.29-.24-1.17s0-.43-.07-1.21A106.67,106.67,0,0,1,378,380.6c.09-2,.27-3.91.4-5.86-.29,4.21.28-2,.46-3.23.65-4.44,1.48-8.85,2.42-13.23a194.49,194.49,0,0,1,6.5-22.73c.25-.73,1.34-3.11-.15.22.48-1.09,1-2.17,1.5-3.25.93-1.9,1.94-3.78,3-5.59a64,64,0,0,1,7-9.35c1.59-1.79-2.08,1.56-.12.22.92-.63,1.73-1.46,2.63-2.12a38.1,38.1,0,0,1,5.21-3.2c.83-.42,1.66-.82,2.52-1.16,2.16-.84-3.26.63,1.63-.38a68,68,0,0,1,6.93-1.13,78.74,78.74,0,0,1,8-.32c1.18,0,2.37,0,3.56.07s1.18,0-.15,0l2,.1c5.9.31,11.79.65,17.67,1.08q17.66,1.29,35.24,3.4c4.58.55,8.87-.21,11.67-4.29s2.74-10.61,1.62-15.1c-2.59-10.37-11.63-25.49-23.71-26.93Z"></path>
<path fill="#ff6c00" d="M212.55,382c26.77-23.45,53.61-46.94,82.53-67.74a443.4,443.4,0,0,1,44.14-28.19c7.47-4.13,15.1-7.94,22.84-11.55.35-.17,3.06-1.38.67-.33l2.43-1.05c1.89-.81,3.79-1.61,5.7-2.38q6.13-2.49,12.36-4.7a256.35,256.35,0,0,1,50.17-12.36c.25,0,3.14-.38.92-.13-2.4.27,1.26-.11,1.81-.17,2-.2,4.07-.37,6.1-.52q6.57-.45,13.16-.5c4.32,0,8.65.09,13,.33,2.17.12,4.33.29,6.49.46.37,0,3.48.29.83.05-3-.28,2.08.25,2.66.32a256.85,256.85,0,0,1,26.54,4.86q6.35,1.5,12.63,3.3a11.42,11.42,0,0,1,2.69.77c-3.17-2.06-2.75-.86-.75-.21,2.37.78,4.74,1.52,7.11,2.32,8.52,2.89,16.93,6.11,25.23,9.6q5.6,2.35,11.1,4.88c1.82.84,3.62,1.85,5.48,2.6-7-2.8-.2-.08,1.54.84q6.51,3.43,12.77,7.29c2,1.21,3.89,2.46,5.8,3.74l2.14,1.46c4.85,3.3-3.39-2.65-.71-.49,3.61,2.9,7.28,5.7,10.73,8.81,1.7,1.53,3.75,4.31,5.73,5.42-.09-.05-3.28-3.44-1.42-1.41,1,1.08,2,2.12,3,3.2,13.1,14.3,24,30.38,34.89,46.39,3.39,5,10.84,9.5,16.29,11.64,4.67,1.83,11.91,3.54,17,1.83,4.12-1.4,8.11-4.11,8.44-9,.37-5.5-2.42-9.75-5.39-14.13-10-14.8-20.14-29.66-32-43.13a214.15,214.15,0,0,0-47.67-40.66C566.09,242.6,526.7,227.86,488.18,220a249.63,249.63,0,0,0-115.86,3.43c-35.66,9.72-69.32,26.7-100,47.07-35,23.24-66.71,51-98.27,78.62-8.81,7.72-1.86,19.74,5.6,25.79,5.13,4.16,11.31,7.85,17.91,8.94,4.61.76,11.18,1.49,15-1.86Z"></path>
<path fill="#ff6c00" d="M644,338.17c-6.88,38.27-32.81,68.95-60.21,95-29.79,28.3-62.67,56-102.15,69.3-36.5,12.33-76.89,14.53-114.65,7.1-8.7-1.72-17.29-3.93-25.78-6.51,2.82.86-2.15-.71-3.08-1-1.86-.64-3.72-1.29-5.58-2q-3.12-1.16-6.22-2.37c-1.14-.45-2.33-.85-3.43-1.39,2.2,1.07,2.5,1.06.11,0-2-.88-4.06-1.8-6.08-2.73l-2.68-1.27c-3.67-1.73,1.2.56,1.58.78-1.7-1-3.53-1.79-5.27-2.71-1.09-.57-2.17-1.17-3.26-1.75-2.89-1.55,5.47,3.14,1.5.81l-5.75-3.38c-3.11-1.85,5.9,3.77,1.46.88l-2.5-1.59c-1.66-1.08-3.27-2.22-4.94-3.28,6.22,4-.64-.5-2.15-1.61-1.91-1.39-3.83-3.34-5.92-4.45,3.49,1.86,1.8,1.42.68.51s-2.3-1.86-3.44-2.81c-1.9-1.57-3.77-3.17-5.63-4.8l-2.21-2c-.16-.14-3.7-3.4-1.32-1.17a249.53,249.53,0,0,1-20.31-21.46,231,231,0,0,1-31.16-48.49c-1.55-3.21-6.31-6.41-8.92-8.33a124.45,124.45,0,0,0-17-10.47c-4.56-2.32-9.37-4.95-14.41-6-1.32-.29-5.37-1.16-4,1.67,16.78,34.78,42,65.11,71.84,89.46,36.6,29.84,79.2,53.52,124.39,67.41C415.35,541.16,456,544.35,495,537.11a203.5,203.5,0,0,0,63.4-23c19-10.82,36.28-24.45,52.67-38.88,33.8-29.79,69.33-64.68,77.64-110.89.43-2.39-3.73-5.54-4.94-6.58a98.28,98.28,0,0,0-15.14-10.38c-1.63-.94-24-12.71-24.63-9.19Z"></path>
</svg>