<?xml version="1.0" encoding="utf-8"?>
<!-- Generator: Adobe Illustrator 16.0.0, SVG Export Plug-In . SVG Version: 6.00 Build 0)  -->
<!DOCTYPE svg PUBLIC "-//W3C//DTD SVG 1.1//EN" "http://www.w3.org/Graphics/SVG/1.1/DTD/svg11.dtd">
<svg version="1.1" id="Layer_1" xmlns="http://www.w3.org/2000/svg" xmlns:xlink="http://www.w3.org/1999/xlink" x="0px" y="0px"
	 width="328px" height="293.474px" viewBox="0 0 328 293.474" enable-background="new 0 0 328 293.474" xml:space="preserve">
<path fill-rule="evenodd" clip-rule="evenodd" fill="#A4A4A4" d="M34.556,147.64c0.642-28.121,7.361-54.418,23.312-77.823
	c19.41-28.482,45.847-46.811,80.169-52.179c24.588-3.845,47.911,0.041,67.85,16.24c34.099,27.702,37.975,85.034-4.933,114.338
	c-8.224,5.617-17.104,10.271-25.677,15.379c-6.778,4.038-11.91,9.528-12.183,17.704c-0.154,4.617,0.872,9.478,2.357,13.896
	c2.218,6.595,5.195,12.946,8.058,19.308c3.894,8.653,5.688,17.646,3.888,26.994c-2.765,14.357-13.618,23.903-29.519,27.02
	c-23.593,4.624-44.004-2.749-62.222-16.981c-28.374-22.166-44.843-51.41-49.676-87.111C35.228,158.866,35.017,153.236,34.556,147.64
	z M50.078,147.78c-0.321,13.804,2.146,27.146,7.073,39.945c9.86,25.61,25.587,46.491,50.05,59.925
	c12.898,7.082,26.605,8.967,40.91,5.166c10.38-2.757,15.358-9.319,14.579-20.016c-0.311-4.248-1.802-8.504-3.308-12.551
	c-2.694-7.231-6.284-14.152-8.656-21.477c-7.213-22.276-0.696-38.288,19.624-49.796c7.162-4.056,14.384-8.06,21.237-12.601
	c29.492-19.54,30.989-54.097,16.863-76.797c-12.111-19.462-30.784-27.635-52.879-27.959c-31.649-0.463-57.255,13.02-77.562,36.659
	C58.449,91.051,50.389,118.125,50.078,147.78z"/>
<path fill-rule="evenodd" clip-rule="evenodd" fill="#A4A4A4" d="M304.051,97.751c-0.53,2.037-0.926,4.119-1.611,6.102
	c-13.206,38.147-26.453,76.281-39.644,114.434c-0.419,1.212-0.723,2.703-0.413,3.89c3.27,12.535-0.158,23.419-8.026,33.209
	c-9.772,12.16-22.422,20.029-37.216,24.614c-5.71,1.77-11.465,3.396-17.161,5.212c-3.622,1.154-6.703,0.522-9.082-2.445
	c-2.333-2.911-1.814-5.964-0.226-9.106c3.879-7.675,6.356-15.754,5.873-24.448c-0.186-3.329-0.769-6.695-1.644-9.916
	c-4.245-15.622,1.423-29.615,15.267-37.804c1.913-1.132,3.742-2.917,4.841-4.839c19.691-34.442,39.262-68.954,58.866-103.447
	c0.862-1.518,1.697-3.066,2.714-4.479c3.788-5.264,10.491-7.425,16.625-5.446C299.553,85.327,303.772,91.092,304.051,97.751z
	 M209.843,266.334c14.418-3.977,26.171-10.955,34.418-22.813c9.523-13.693,1.806-29.989-14.824-31.697
	c-12.534-1.286-24.666,10.795-19.975,23.537c2.688,7.303,2.584,14.941,1.865,22.559C211.074,260.604,210.4,263.249,209.843,266.334z
	 M287.55,101.613c-0.351-0.208-0.702-0.416-1.053-0.624c-18.294,31.706-36.588,63.412-54.647,94.713
	c7.123,3.128,13.605,5.974,20.463,8.985C263.961,170.615,275.755,136.114,287.55,101.613z"/>
<path fill-rule="evenodd" clip-rule="evenodd" fill="#A4A4A4" d="M156.577,52.31c21.217,0.141,37.848,17.058,37.718,38.364
	c-0.128,20.851-17.254,37.667-38.233,37.541c-20.987-0.127-37.669-17.29-37.535-38.618C118.656,68.972,135.801,52.171,156.577,52.31
	z M156.467,67.44c-12.655-0.013-22.927,10.154-22.955,22.72c-0.029,12.464,10.37,22.914,22.85,22.964
	c12.46,0.049,22.9-10.358,22.936-22.86C179.332,77.674,169.107,67.452,156.467,67.44z"/>
<path fill-rule="evenodd" clip-rule="evenodd" fill="#A4A4A4" d="M132.192,148.293c0.015,16.991-13.704,30.86-30.597,30.932
	c-17.096,0.073-31.054-13.806-31.057-30.88c-0.003-17.143,13.933-31.036,30.995-30.9
	C118.574,117.58,132.179,131.269,132.192,148.293z M101.449,132.663c-8.687-0.02-15.78,6.892-15.902,15.494
	c-0.123,8.585,7.338,16.063,15.939,15.977c8.631-0.087,15.602-7.161,15.598-15.828C117.079,139.575,110.191,132.684,101.449,132.663
	z"/>
<path fill-rule="evenodd" clip-rule="evenodd" fill="#A4A4A4" d="M115.067,186.797c11.742-0.007,21.285,9.436,21.302,21.077
	c0.017,11.589-9.6,21.178-21.253,21.195c-11.648,0.018-21.26-9.541-21.269-21.151C93.84,196.256,103.336,186.805,115.067,186.797z
	 M124.552,208.048c0.087-5.27-4.09-9.48-9.421-9.497c-5.221-0.016-9.309,3.909-9.433,9.056c-0.128,5.301,3.942,9.652,9.178,9.816
	C119.973,217.581,124.467,213.227,124.552,208.048z"/>
</svg>
