<svg xmlns="http://www.w3.org/2000/svg" width="22.336" height="27.468" viewBox="0 0 22.336 27.468">
  <g id="Group_5131" data-name="Group 5131" transform="translate(223.289 -629.924)">
    <path id="Path_1516" data-name="Path 1516" d="M-155.3,629.924a4.834,4.834,0,0,0-4.828,4.829v2.818A4.829,4.829,0,0,0-155.3,642.4a4.829,4.829,0,0,0,4.829-4.829v-2.818A4.834,4.834,0,0,0-155.3,629.924Zm3.624,7.646a3.624,3.624,0,0,1-3.624,3.625,3.624,3.624,0,0,1-3.625-3.624h0v-2.818a3.624,3.624,0,0,1,3.624-3.625,3.624,3.624,0,0,1,3.625,3.624h0Z" transform="translate(-56.824)" fill="#3cbfae"/>
    <path id="Path_1517" data-name="Path 1517" d="M-200.953,767.682v-8.35a5.5,5.5,0,0,0-1.006-3.176l-1.077-1.145a5.506,5.506,0,0,0-3.45-1.212h-1.781a.662.662,0,0,1-.662-.662h0a.6.6,0,0,0-.6-.6.6.6,0,0,0-.567.4l-.708,1.974a1.387,1.387,0,0,1-1.774.837,1.387,1.387,0,0,1-.843-.853l-.677-1.966a.6.6,0,0,0-.766-.373.6.6,0,0,0-.23.144l-.016.016a.6.6,0,0,0-.176.425.662.662,0,0,1-.662.662h-1.807a5.505,5.505,0,0,0-3.45,1.212l-1.076,1.145a5.5,5.5,0,0,0-1.006,3.176v8.35Zm-1.2-1.2h-19.927v-7.146A4.333,4.333,0,0,1-217.756,755h1.807a1.857,1.857,0,0,0,1.154-.4l.234.68a2.591,2.591,0,0,0,3.294,1.606,2.591,2.591,0,0,0,1.595-1.574l.254-.709a1.856,1.856,0,0,0,1.092.4h1.841a4.333,4.333,0,0,1,4.328,4.329Z" transform="translate(0 -110.29)" fill="#3cbfae"/>
  </g>
</svg>
